<svg xmlns="http://www.w3.org/2000/svg" xmlns:xlink="http://www.w3.org/1999/xlink" fill="none" version="1.1" width="24" height="24" viewBox="0 0 24 24"><defs><clipPath id="master_svg0_0_284"><rect x="0" y="0" width="24" height="24" rx="0"/></clipPath></defs><g style="mix-blend-mode:passthrough" clip-path="url(#master_svg0_0_284)"><g style="mix-blend-mode:passthrough"><path d="M12,20C12,20,11.29289,20.7071,11.29289,20.7071C11.68342,21.0976,12.3166,21.0976,12.7071,20.7071C12.7071,20.7071,12,20,12,20C12,20,12,20,12,20ZM8,16C8,16,8.70711,15.2929,8.70711,15.2929C8.51957,15.1054,8.26522,15,8,15C8,15,8,16,8,16C8,16,8,16,8,16ZM16,16C16,16,16,15,16,15C15.7348,15,15.4804,15.1054,15.2929,15.2929C15.2929,15.2929,16,16,16,16C16,16,16,16,16,16ZM7,7C6.44772,7,6,7.44772,6,8C6,8.55228,6.44772,9,7,9C7,9,7,7,7,7C7,7,7,7,7,7ZM17,9C17.552300000000002,9,18,8.55228,18,8C18,7.44772,17.552300000000002,7,17,7C17,7,17,9,17,9C17,9,17,9,17,9ZM7,11C6.44772,11,6,11.44772,6,12C6,12.55229,6.44772,13,7,13C7,13,7,11,7,11C7,11,7,11,7,11ZM11,13C11.55229,13,12,12.55229,12,12C12,11.44772,11.55229,11,11,11C11,11,11,13,11,13C11,13,11,13,11,13ZM5,5C5,5,19,5,19,5C19,5,19,3,19,3C19,3,5,3,5,3C5,3,5,5,5,5C5,5,5,5,5,5ZM20,6C20,6,20,14,20,14C20,14,22,14,22,14C22,14,22,6,22,6C22,6,20,6,20,6C20,6,20,6,20,6ZM4,14C4,14,4,6,4,6C4,6,2,6,2,6C2,6,2,14,2,14C2,14,4,14,4,14C4,14,4,14,4,14ZM12.7071,19.2929C12.7071,19.2929,8.70711,15.2929,8.70711,15.2929C8.70711,15.2929,7.29289,16.7071,7.29289,16.7071C7.29289,16.7071,11.29289,20.7071,11.29289,20.7071C11.29289,20.7071,12.7071,19.2929,12.7071,19.2929C12.7071,19.2929,12.7071,19.2929,12.7071,19.2929ZM8,15C8,15,5,15,5,15C5,15,5,17,5,17C5,17,8,17,8,17C8,17,8,15,8,15C8,15,8,15,8,15ZM19,15C19,15,16,15,16,15C16,15,16,17,16,17C16,17,19,17,19,17C19,17,19,15,19,15C19,15,19,15,19,15ZM15.2929,15.2929C15.2929,15.2929,11.29289,19.2929,11.29289,19.2929C11.29289,19.2929,12.7071,20.7071,12.7071,20.7071C12.7071,20.7071,16.7071,16.7071,16.7071,16.7071C16.7071,16.7071,15.2929,15.2929,15.2929,15.2929C15.2929,15.2929,15.2929,15.2929,15.2929,15.2929ZM2,14C2,15.6569,3.34315,17,5,17C5,17,5,15,5,15C4.44772,15,4,14.5523,4,14C4,14,2,14,2,14C2,14,2,14,2,14ZM20,14C20,14.5523,19.5523,15,19,15C19,15,19,17,19,17C20.6569,17,22,15.6569,22,14C22,14,20,14,20,14C20,14,20,14,20,14ZM19,5C19.5523,5,20,5.44772,20,6C20,6,22,6,22,6C22,4.34315,20.6569,3,19,3C19,3,19,5,19,5C19,5,19,5,19,5ZM5,3C3.34315,3,2,4.34315,2,6C2,6,4,6,4,6C4,5.44772,4.44772,5,5,5C5,5,5,3,5,3C5,3,5,3,5,3ZM7,9C7,9,17,9,17,9C17,9,17,7,17,7C17,7,7,7,7,7C7,7,7,9,7,9C7,9,7,9,7,9ZM7,13C7,13,11,13,11,13C11,13,11,11,11,11C11,11,7,11,7,11C7,11,7,13,7,13C7,13,7,13,7,13Z" fill="#111827" fill-opacity="1"/></g></g></svg>