<svg xmlns="http://www.w3.org/2000/svg" xmlns:xlink="http://www.w3.org/1999/xlink" fill="none" version="1.1" width="24" height="24" viewBox="0 0 24 24"><defs><clipPath id="master_svg0_0_364"><rect x="0" y="0" width="24" height="24" rx="0"/></clipPath></defs><g style="mix-blend-mode:passthrough" clip-path="url(#master_svg0_0_364)"><g style="mix-blend-mode:passthrough"><path d="M7,14C7,14,8,14,8,14C8,13.4477,7.55228,13,7,13C7,13,7,14,7,14C7,14,7,14,7,14ZM7,18C7,18,6,18,6,18C6,18.4045,6.24364,18.7691,6.61732,18.9239C6.99099,19.0787,7.42111,18.9931,7.70711,18.7071C7.70711,18.7071,7,18,7,18C7,18,7,18,7,18ZM11,14C11,14,11,13,11,13C10.73478,13,10.48043,13.1054,10.29289,13.2929C10.29289,13.2929,11,14,11,14C11,14,11,14,11,14ZM17,18C17,18,17,17,17,17C16.447699999999998,17,16,17.447699999999998,16,18C16,18,17,18,17,18C17,18,17,18,17,18ZM17,22C17,22,16.2929,22.7071,16.2929,22.7071C16.5789,22.9931,17.009,23.0787,17.3827,22.9239C17.7564,22.7691,18,22.4045,18,22C18,22,17,22,17,22C17,22,17,22,17,22ZM13,18C13,18,13.7071,17.2929,13.7071,17.2929C13.5196,17.1054,13.2652,17,13,17C13,17,13,18,13,18C13,18,13,18,13,18ZM17,7C16.447699999999998,7,16,7.44772,16,8C16,8.55228,16.447699999999998,9,17,9C17,9,17,7,17,7C17,7,17,7,17,7ZM7.58579,17.4142C7.58579,17.4142,6.87868,16.7071,6.87868,16.7071C6.87868,16.7071,6.87868,16.7071,6.87868,16.7071C6.87868,16.7071,7.58579,17.4142,7.58579,17.4142C7.58579,17.4142,7.58579,17.4142,7.58579,17.4142ZM5,5C5,5,15,5,15,5C15,5,15,3,15,3C15,3,5,3,5,3C5,3,5,5,5,5C5,5,5,5,5,5ZM16,6C16,6,16,12,16,12C16,12,18,12,18,12C18,12,18,6,18,6C18,6,16,6,16,6C16,6,16,6,16,6ZM4,12C4,12,4,6,4,6C4,6,2,6,2,6C2,6,2,12,2,12C2,12,4,12,4,12C4,12,4,12,4,12ZM7,13C7,13,5,13,5,13C5,13,5,15,5,15C5,15,7,15,7,15C7,15,7,13,7,13C7,13,7,13,7,13ZM8,18C8,18,8,14,8,14C8,14,6,14,6,14C6,14,6,18,6,18C6,18,8,18,8,18C8,18,8,18,8,18ZM15,13C15,13,11,13,11,13C11,13,11,15,11,15C11,15,15,15,15,15C15,15,15,13,15,13C15,13,15,13,15,13ZM2,12C2,13.6568,3.34315,15,5,15C5,15,5,13,5,13C4.44772,13,4,12.55229,4,12C4,12,2,12,2,12C2,12,2,12,2,12ZM16,12C16,12.55228,15.5523,13,15,13C15,13,15,15,15,15C16.6569,15,18,13.6568,18,12C18,12,16,12,16,12C16,12,16,12,16,12ZM15,5C15.5523,5,16,5.44772,16,6C16,6,18,6,18,6C18,4.34315,16.6569,3,15,3C15,3,15,5,15,5C15,5,15,5,15,5ZM5,3C3.34315,3,2,4.34315,2,6C2,6,4,6,4,6C4,5.44772,4.44772,5,5,5C5,5,5,3,5,3C5,3,5,3,5,3ZM22,16C22,16,22,10,22,10C22,10,20,10,20,10C20,10,20,16,20,16C20,16,22,16,22,16C22,16,22,16,22,16ZM17,19C17,19,19,19,19,19C19,19,19,17,19,17C19,17,17,17,17,17C17,17,17,19,17,19C17,19,17,19,17,19ZM18,22C18,22,18,18,18,18C18,18,16,18,16,18C16,18,16,22,16,22C16,22,18,22,18,22C18,22,18,22,18,22ZM9,19C9,19,13,19,13,19C13,19,13,17,13,17C13,17,9,17,9,17C9,17,9,19,9,19C9,19,9,19,9,19ZM12.2929,18.7071C12.2929,18.7071,16.2929,22.7071,16.2929,22.7071C16.2929,22.7071,17.7071,21.2929,17.7071,21.2929C17.7071,21.2929,13.7071,17.2929,13.7071,17.2929C13.7071,17.2929,12.2929,18.7071,12.2929,18.7071C12.2929,18.7071,12.2929,18.7071,12.2929,18.7071ZM20,16C20,16.552300000000002,19.5523,17,19,17C19,17,19,19,19,19C20.6569,19,22,17.6569,22,16C22,16,20,16,20,16C20,16,20,16,20,16ZM19,9C19.5523,9,20,9.44772,20,10C20,10,22,10,22,10C22,8.34315,20.6569,7,19,7C19,7,19,9,19,9C19,9,19,9,19,9ZM19,7C19,7,17,7,17,7C17,7,17,9,17,9C17,9,19,9,19,9C19,9,19,7,19,7C19,7,19,7,19,7ZM6.87868,18.121299999999998C7.42048,18.6631,8.17185,19,9,19C9,19,9,17,9,17C8.72358,17,8.47495,16.889200000000002,8.29289,16.7071C8.29289,16.7071,6.87868,18.121299999999998,6.87868,18.121299999999998C6.87868,18.121299999999998,6.87868,18.121299999999998,6.87868,18.121299999999998ZM10.29289,13.2929C10.29289,13.2929,6.87868,16.7071,6.87868,16.7071C6.87868,16.7071,8.29289,18.121299999999998,8.29289,18.121299999999998C8.29289,18.121299999999998,11.70711,14.7071,11.70711,14.7071C11.70711,14.7071,10.29289,13.2929,10.29289,13.2929C10.29289,13.2929,10.29289,13.2929,10.29289,13.2929ZM6.87868,16.7071C6.87868,16.7071,6.29289,17.2929,6.29289,17.2929C6.29289,17.2929,7.70711,18.7071,7.70711,18.7071C7.70711,18.7071,8.29289,18.121299999999998,8.29289,18.121299999999998C8.29289,18.121299999999998,6.87868,16.7071,6.87868,16.7071C6.87868,16.7071,6.87868,16.7071,6.87868,16.7071Z" fill="#111827" fill-opacity="1"/></g></g></svg>