<svg xmlns="http://www.w3.org/2000/svg" xmlns:xlink="http://www.w3.org/1999/xlink" fill="none" version="1.1" width="24" height="24" viewBox="0 0 24 24"><defs><clipPath id="master_svg0_0_50"><rect x="0" y="0" width="24" height="24" rx="0"/></clipPath></defs><g style="mix-blend-mode:passthrough" clip-path="url(#master_svg0_0_50)"><g style="mix-blend-mode:passthrough"><path d="M4.394994264373779,16.28C4.394994264373779,16.28,5.331324264373779,16.6312,5.331324264373779,16.6312C5.44821426437378,16.319499999999998,5.40232426437378,15.97,5.208924264373779,15.6991C5.208924264373779,15.6991,4.394994264373779,16.28,4.394994264373779,16.28C4.394994264373779,16.28,4.394994264373779,16.28,4.394994264373779,16.28ZM3.0000042643737794,20C3.0000042643737794,20,2.0636710643737795,19.6489,2.0636710643737795,19.6489C1.9361799643737794,19.9888,2.002987014373779,20.3712,2.2382012643737794,20.6478C2.4734152643737795,20.9244,2.8400782643737794,21.0518,3.1961142643737794,20.9806C3.1961142643737794,20.9806,3.0000042643737794,20,3.0000042643737794,20C3.0000042643737794,20,3.0000042643737794,20,3.0000042643737794,20ZM7.74467426437378,19.0511C7.74467426437378,19.0511,8.17582426437378,18.1488,8.17582426437378,18.1488C7.980704264373779,18.055500000000002,7.760614264373779,18.028100000000002,7.548554264373779,18.0705C7.548554264373779,18.0705,7.74467426437378,19.0511,7.74467426437378,19.0511C7.74467426437378,19.0511,7.74467426437378,19.0511,7.74467426437378,19.0511ZM8.000004264373779,11C7.447724264373779,11,7.000004264373779,11.44772,7.000004264373779,12C7.000004264373779,12.55229,7.447724264373779,13,8.000004264373779,13C8.000004264373779,13,8.000004264373779,11,8.000004264373779,11C8.000004264373779,11,8.000004264373779,11,8.000004264373779,11ZM8.01000426437378,13C8.56228426437378,13,9.01000426437378,12.55229,9.01000426437378,12C9.01000426437378,11.44772,8.56228426437378,11,8.01000426437378,11C8.01000426437378,11,8.01000426437378,13,8.01000426437378,13C8.01000426437378,13,8.01000426437378,13,8.01000426437378,13ZM11.99998426437378,11C11.44771426437378,11,11.000004264373779,11.44772,11.000004264373779,12C11.000004264373779,12.55229,11.44771426437378,13,11.99998426437378,13C11.99998426437378,13,11.99998426437378,11,11.99998426437378,11C11.99998426437378,11,11.99998426437378,11,11.99998426437378,11ZM12.009984264373779,13C12.56228426437378,13,13.009984264373779,12.55229,13.009984264373779,12C13.009984264373779,11.44772,12.56228426437378,11,12.009984264373779,11C12.009984264373779,11,12.009984264373779,13,12.009984264373779,13C12.009984264373779,13,12.009984264373779,13,12.009984264373779,13ZM15.99998426437378,11C15.447684264373779,11,14.99998426437378,11.44772,14.99998426437378,12C14.99998426437378,12.55229,15.447684264373779,13,15.99998426437378,13C15.99998426437378,13,15.99998426437378,11,15.99998426437378,11C15.99998426437378,11,15.99998426437378,11,15.99998426437378,11ZM16.009984264373777,13C16.56228426437378,13,17.009984264373777,12.55229,17.009984264373777,12C17.009984264373777,11.44772,16.56228426437378,11,16.009984264373777,11C16.009984264373777,11,16.009984264373777,13,16.009984264373777,13C16.009984264373777,13,16.009984264373777,13,16.009984264373777,13ZM19.99998426437378,12C19.99998426437378,15.7585,16.53228426437378,19,11.99998426437378,19C11.99998426437378,19,11.99998426437378,21,11.99998426437378,21C17.40888426437378,21,21.99998426437378,17.078,21.99998426437378,12C21.99998426437378,12,19.99998426437378,12,19.99998426437378,12C19.99998426437378,12,19.99998426437378,12,19.99998426437378,12ZM11.99998426437378,5C16.53228426437378,5,19.99998426437378,8.24148,19.99998426437378,12C19.99998426437378,12,21.99998426437378,12,21.99998426437378,12C21.99998426437378,6.92196,17.40888426437378,3,11.99998426437378,3C11.99998426437378,3,11.99998426437378,5,11.99998426437378,5C11.99998426437378,5,11.99998426437378,5,11.99998426437378,5ZM4.000004264373779,12C4.000004264373779,8.24148,7.4677442643737795,5,11.99998426437378,5C11.99998426437378,5,11.99998426437378,3,11.99998426437378,3C6.591134264373779,3,2.0000000122737793,6.92196,2.0000000122737793,12C2.0000000122737793,12,4.000004264373779,12,4.000004264373779,12C4.000004264373779,12,4.000004264373779,12,4.000004264373779,12ZM5.208924264373779,15.6991C4.4379942643737795,14.619,4.000004264373779,13.3518,4.000004264373779,12C4.000004264373779,12,2.0000000122737793,12,2.0000000122737793,12C2.0000000122737793,13.7968,2.585136264373779,15.4657,3.5810542643737793,16.861C3.5810542643737793,16.861,5.208924264373779,15.6991,5.208924264373779,15.6991C5.208924264373779,15.6991,5.208924264373779,15.6991,5.208924264373779,15.6991ZM3.9363242643737792,20.3511C3.9363242643737792,20.3511,5.331324264373779,16.6312,5.331324264373779,16.6312C5.331324264373779,16.6312,3.4586642643737795,15.9289,3.4586642643737795,15.9289C3.4586642643737795,15.9289,2.0636710643737795,19.6489,2.0636710643737795,19.6489C2.0636710643737795,19.6489,3.9363242643737792,20.3511,3.9363242643737792,20.3511C3.9363242643737792,20.3511,3.9363242643737792,20.3511,3.9363242643737792,20.3511ZM7.548554264373779,18.0705C7.548554264373779,18.0705,2.8038842643737794,19.0194,2.8038842643737794,19.0194C2.8038842643737794,19.0194,3.1961142643737794,20.9806,3.1961142643737794,20.9806C3.1961142643737794,20.9806,7.940794264373779,20.0316,7.940794264373779,20.0316C7.940794264373779,20.0316,7.548554264373779,18.0705,7.548554264373779,18.0705C7.548554264373779,18.0705,7.548554264373779,18.0705,7.548554264373779,18.0705ZM11.99998426437378,19C10.609834264373779,19,9.30814426437378,18.6899,8.17582426437378,18.1488C8.17582426437378,18.1488,7.313524264373779,19.9533,7.313524264373779,19.9533C8.715294264373778,20.6232,10.31163426437378,21,11.99998426437378,21C11.99998426437378,21,11.99998426437378,19,11.99998426437378,19C11.99998426437378,19,11.99998426437378,19,11.99998426437378,19ZM8.000004264373779,13C8.000004264373779,13,8.01000426437378,13,8.01000426437378,13C8.01000426437378,13,8.01000426437378,11,8.01000426437378,11C8.01000426437378,11,8.000004264373779,11,8.000004264373779,11C8.000004264373779,11,8.000004264373779,13,8.000004264373779,13C8.000004264373779,13,8.000004264373779,13,8.000004264373779,13ZM11.99998426437378,13C11.99998426437378,13,12.009984264373779,13,12.009984264373779,13C12.009984264373779,13,12.009984264373779,11,12.009984264373779,11C12.009984264373779,11,11.99998426437378,11,11.99998426437378,11C11.99998426437378,11,11.99998426437378,13,11.99998426437378,13C11.99998426437378,13,11.99998426437378,13,11.99998426437378,13ZM15.99998426437378,13C15.99998426437378,13,16.009984264373777,13,16.009984264373777,13C16.009984264373777,13,16.009984264373777,11,16.009984264373777,11C16.009984264373777,11,15.99998426437378,11,15.99998426437378,11C15.99998426437378,11,15.99998426437378,13,15.99998426437378,13C15.99998426437378,13,15.99998426437378,13,15.99998426437378,13Z" fill="#111827" fill-opacity="1"/></g></g></svg>