<svg xmlns="http://www.w3.org/2000/svg" xmlns:xlink="http://www.w3.org/1999/xlink" fill="none" version="1.1" width="24" height="24" viewBox="0 0 24 24"><defs><clipPath id="master_svg0_0_236"><rect x="0" y="0" width="24" height="24" rx="0"/></clipPath></defs><g style="mix-blend-mode:passthrough" clip-path="url(#master_svg0_0_236)"><g style="mix-blend-mode:passthrough" transform="matrix(0,1,-1,0,20,-11.999998092651367)"><path d="M31.707099046325684,5.7071109536743165C32.09759904632568,5.3165809536743165,32.09759904632568,4.683416953674317,31.707099046325684,4.292892953674317C31.316599046325685,3.9023702536743166,30.683399046325682,3.9023702536743166,30.292899046325683,4.292892953674317C30.292899046325683,4.292892953674317,31.707099046325684,5.7071109536743165,31.707099046325684,5.7071109536743165C31.707099046325684,5.7071109536743165,31.707099046325684,5.7071109536743165,31.707099046325684,5.7071109536743165ZM23.999999046325684,12.000000953674316C23.999999046325684,12.000000953674316,23.292889046325683,12.707110953674317,23.292889046325683,12.707110953674317C23.68341904632568,13.097630953674317,24.316579046325685,13.097630953674317,24.707109046325684,12.707110953674317C24.707109046325684,12.707110953674317,23.999999046325684,12.000000953674316,23.999999046325684,12.000000953674316C23.999999046325684,12.000000953674316,23.999999046325684,12.000000953674316,23.999999046325684,12.000000953674316ZM17.707109046325684,4.292892953674317C17.316579046325685,3.9023702536743166,16.683415046325685,3.9023702536743166,16.292891046325682,4.292892953674317C15.902368346325684,4.683416953674317,15.902368346325684,5.3165809536743165,16.292891046325682,5.7071109536743165C16.292891046325682,5.7071109536743165,17.707109046325684,4.292892953674317,17.707109046325684,4.292892953674317C17.707109046325684,4.292892953674317,17.707109046325684,4.292892953674317,17.707109046325684,4.292892953674317ZM30.292899046325683,4.292892953674317C30.292899046325683,4.292892953674317,23.292889046325683,11.292890953674316,23.292889046325683,11.292890953674316C23.292889046325683,11.292890953674316,24.707109046325684,12.707110953674317,24.707109046325684,12.707110953674317C24.707109046325684,12.707110953674317,31.707099046325684,5.7071109536743165,31.707099046325684,5.7071109536743165C31.707099046325684,5.7071109536743165,30.292899046325683,4.292892953674317,30.292899046325683,4.292892953674317C30.292899046325683,4.292892953674317,30.292899046325683,4.292892953674317,30.292899046325683,4.292892953674317ZM24.707109046325684,11.292890953674316C24.707109046325684,11.292890953674316,17.707109046325684,4.292892953674317,17.707109046325684,4.292892953674317C17.707109046325684,4.292892953674317,16.292891046325682,5.7071109536743165,16.292891046325682,5.7071109536743165C16.292891046325682,5.7071109536743165,23.292889046325683,12.707110953674317,23.292889046325683,12.707110953674317C23.292889046325683,12.707110953674317,24.707109046325684,11.292890953674316,24.707109046325684,11.292890953674316C24.707109046325684,11.292890953674316,24.707109046325684,11.292890953674316,24.707109046325684,11.292890953674316Z" fill="#111827" fill-opacity="1"/></g></g></svg>