<svg xmlns="http://www.w3.org/2000/svg" xmlns:xlink="http://www.w3.org/1999/xlink" fill="none" version="1.1" width="24" height="24" viewBox="0 0 24 24"><defs><clipPath id="master_svg0_0_188"><rect x="0" y="0" width="24" height="24" rx="0"/></clipPath></defs><g style="mix-blend-mode:passthrough" clip-path="url(#master_svg0_0_188)"><g style="mix-blend-mode:passthrough" transform="matrix(0,-1,1,0,-11.999999046325684,28.000000953674316)"><path d="M23.707100953674317,21.70711C24.097600953674316,21.316580000000002,24.097600953674316,20.683416,23.707100953674317,20.292892C23.316600953674318,19.9023693,22.683400953674315,19.9023693,22.292900953674316,20.292892C22.292900953674316,20.292892,23.707100953674317,21.70711,23.707100953674317,21.70711C23.707100953674317,21.70711,23.707100953674317,21.70711,23.707100953674317,21.70711ZM16.000000953674316,28C16.000000953674316,28,15.292890953674316,28.70711,15.292890953674316,28.70711C15.683420953674316,29.097630000000002,16.31658095367432,29.097630000000002,16.707110953674317,28.70711C16.707110953674317,28.70711,16.000000953674316,28,16.000000953674316,28C16.000000953674316,28,16.000000953674316,28,16.000000953674316,28ZM9.707110953674317,20.292892C9.316580953674316,19.9023693,8.683416953674316,19.9023693,8.292892953674317,20.292892C7.902370253674317,20.683416,7.902370253674317,21.316580000000002,8.292892953674317,21.70711C8.292892953674317,21.70711,9.707110953674317,20.292892,9.707110953674317,20.292892C9.707110953674317,20.292892,9.707110953674317,20.292892,9.707110953674317,20.292892ZM22.292900953674316,20.292892C22.292900953674316,20.292892,15.292890953674316,27.29289,15.292890953674316,27.29289C15.292890953674316,27.29289,16.707110953674317,28.70711,16.707110953674317,28.70711C16.707110953674317,28.70711,23.707100953674317,21.70711,23.707100953674317,21.70711C23.707100953674317,21.70711,22.292900953674316,20.292892,22.292900953674316,20.292892C22.292900953674316,20.292892,22.292900953674316,20.292892,22.292900953674316,20.292892ZM16.707110953674317,27.29289C16.707110953674317,27.29289,9.707110953674317,20.292892,9.707110953674317,20.292892C9.707110953674317,20.292892,8.292892953674317,21.70711,8.292892953674317,21.70711C8.292892953674317,21.70711,15.292890953674316,28.70711,15.292890953674316,28.70711C15.292890953674316,28.70711,16.707110953674317,27.29289,16.707110953674317,27.29289C16.707110953674317,27.29289,16.707110953674317,27.29289,16.707110953674317,27.29289Z" fill="#111827" fill-opacity="1"/></g></g></svg>