<svg xmlns="http://www.w3.org/2000/svg" xmlns:xlink="http://www.w3.org/1999/xlink" fill="none" version="1.1" width="24" height="24" viewBox="0 0 24 24"><defs><clipPath id="master_svg0_0_168"><rect x="0" y="0" width="24" height="24" rx="0"/></clipPath></defs><g style="mix-blend-mode:passthrough" clip-path="url(#master_svg0_0_168)"><g style="mix-blend-mode:passthrough"><path d="M7.752187496604919,5.382847496604919C7.752187496604919,5.382847496604919,8.27251749660492,4.5288774966049195,8.27251749660492,4.5288774966049195C8.27251749660492,4.5288774966049195,8.27251749660492,4.5288774966049195,8.27251749660492,4.5288774966049195C8.27251749660492,4.5288774966049195,7.752187496604919,5.382847496604919,7.752187496604919,5.382847496604919C7.752187496604919,5.382847496604919,7.752187496604919,5.382847496604919,7.752187496604919,5.382847496604919ZM10.32462749660492,4.317307496604919C10.32462749660492,4.317307496604919,9.35284749660492,4.081387496604919,9.35284749660492,4.081387496604919C9.35284749660492,4.081387496604919,10.32462749660492,4.317307496604919,10.32462749660492,4.317307496604919C10.32462749660492,4.317307496604919,10.32462749660492,4.317307496604919,10.32462749660492,4.317307496604919ZM5.382847496604919,7.7521774966049195C5.382847496604919,7.7521774966049195,4.5288774966049195,8.27250749660492,4.5288774966049195,8.27250749660492C4.5288774966049195,8.27250749660492,4.5288774966049195,8.27250749660492,4.5288774966049195,8.27250749660492C4.5288774966049195,8.27250749660492,5.382847496604919,7.7521774966049195,5.382847496604919,7.7521774966049195C5.382847496604919,7.7521774966049195,5.382847496604919,7.7521774966049195,5.382847496604919,7.7521774966049195ZM4.317307496604919,10.32462749660492C4.317307496604919,10.32462749660492,4.081387496604919,9.35284749660492,4.081387496604919,9.35284749660492C4.081387496604919,9.35284749660492,4.317307496604919,10.32462749660492,4.317307496604919,10.32462749660492C4.317307496604919,10.32462749660492,4.317307496604919,10.32462749660492,4.317307496604919,10.32462749660492ZM4.317307496604919,13.67539749660492C4.317307496604919,13.67539749660492,4.5532274966049195,12.70359749660492,4.5532274966049195,12.70359749660492C4.5532274966049195,12.70359749660492,4.317307496604919,13.67539749660492,4.317307496604919,13.67539749660492C4.317307496604919,13.67539749660492,4.317307496604919,13.67539749660492,4.317307496604919,13.67539749660492ZM5.382847496604919,16.247797496604917C5.382847496604919,16.247797496604917,4.52888749660492,15.727497496604919,4.52888749660492,15.727497496604919C4.52888749660492,15.727497496604919,4.52888749660492,15.727497496604919,4.52888749660492,15.727497496604919C4.52888749660492,15.727497496604919,5.382847496604919,16.247797496604917,5.382847496604919,16.247797496604917C5.382847496604919,16.247797496604917,5.382847496604919,16.247797496604917,5.382847496604919,16.247797496604917ZM7.752187496604919,18.61719749660492C7.752187496604919,18.61719749660492,8.27251749660492,19.47109749660492,8.27251749660492,19.47109749660492C8.27251749660492,19.47109749660492,7.752187496604919,18.61719749660492,7.752187496604919,18.61719749660492C7.752187496604919,18.61719749660492,7.752187496604919,18.61719749660492,7.752187496604919,18.61719749660492ZM10.32462749660492,19.68269749660492C10.32462749660492,19.68269749660492,11.29639749660492,19.44679749660492,11.29639749660492,19.44679749660492C11.29639749660492,19.44679749660492,10.32462749660492,19.68269749660492,10.32462749660492,19.68269749660492C10.32462749660492,19.68269749660492,10.32462749660492,19.68269749660492,10.32462749660492,19.68269749660492ZM13.67539749660492,19.68269749660492C13.67539749660492,19.68269749660492,14.64709749660492,19.91859749660492,14.64709749660492,19.91859749660492C14.64709749660492,19.91859749660492,13.67539749660492,19.68269749660492,13.67539749660492,19.68269749660492C13.67539749660492,19.68269749660492,13.67539749660492,19.68269749660492,13.67539749660492,19.68269749660492ZM16.247797496604917,18.61719749660492C16.247797496604917,18.61719749660492,15.727497496604919,19.47109749660492,15.727497496604919,19.47109749660492C15.727497496604919,19.47109749660492,16.247797496604917,18.61719749660492,16.247797496604917,18.61719749660492C16.247797496604917,18.61719749660492,16.247797496604917,18.61719749660492,16.247797496604917,18.61719749660492ZM18.61719749660492,16.247797496604917C18.61719749660492,16.247797496604917,19.47109749660492,15.727497496604919,19.47109749660492,15.727497496604919C19.47109749660492,15.727497496604919,18.61719749660492,16.247797496604917,18.61719749660492,16.247797496604917C18.61719749660492,16.247797496604917,18.61719749660492,16.247797496604917,18.61719749660492,16.247797496604917ZM19.68269749660492,13.67539749660492C19.68269749660492,13.67539749660492,19.91859749660492,14.64709749660492,19.91859749660492,14.64709749660492C19.91859749660492,14.64709749660492,19.68269749660492,13.67539749660492,19.68269749660492,13.67539749660492C19.68269749660492,13.67539749660492,19.68269749660492,13.67539749660492,19.68269749660492,13.67539749660492ZM19.68269749660492,10.32462749660492C19.68269749660492,10.32462749660492,19.44679749660492,11.29639749660492,19.44679749660492,11.29639749660492C19.44679749660492,11.29639749660492,19.68269749660492,10.32462749660492,19.68269749660492,10.32462749660492C19.68269749660492,10.32462749660492,19.68269749660492,10.32462749660492,19.68269749660492,10.32462749660492ZM18.61719749660492,7.7521774966049195C18.61719749660492,7.7521774966049195,19.47109749660492,8.27250749660492,19.47109749660492,8.27250749660492C19.47109749660492,8.27250749660492,18.61719749660492,7.7521774966049195,18.61719749660492,7.7521774966049195C18.61719749660492,7.7521774966049195,18.61719749660492,7.7521774966049195,18.61719749660492,7.7521774966049195ZM16.247797496604917,5.382847496604919C16.247797496604917,5.382847496604919,15.727497496604919,4.5288774966049195,15.727497496604919,4.5288774966049195C15.727497496604919,4.5288774966049195,15.727497496604919,4.5288774966049195,15.727497496604919,4.5288774966049195C15.727497496604919,4.5288774966049195,16.247797496604917,5.382847496604919,16.247797496604917,5.382847496604919C16.247797496604917,5.382847496604919,16.247797496604917,5.382847496604919,16.247797496604917,5.382847496604919ZM13.67539749660492,4.317307496604919C13.67539749660492,4.317307496604919,12.70359749660492,4.5532274966049195,12.70359749660492,4.5532274966049195C12.70359749660492,4.5532274966049195,13.67539749660492,4.317307496604919,13.67539749660492,4.317307496604919C13.67539749660492,4.317307496604919,13.67539749660492,4.317307496604919,13.67539749660492,4.317307496604919ZM7.23185749660492,6.23680749660492C8.807257496604919,7.196727496604919,10.861177496604919,6.345957496604919,11.29639749660492,4.553217496604919C11.29639749660492,4.553217496604919,9.35284749660492,4.081387496604919,9.35284749660492,4.081387496604919C9.237167496604918,4.55788749660492,8.69124749660492,4.784017496604919,8.27251749660492,4.5288774966049195C8.27251749660492,4.5288774966049195,7.23185749660492,6.23680749660492,7.23185749660492,6.23680749660492C7.23185749660492,6.23680749660492,7.23185749660492,6.23680749660492,7.23185749660492,6.23680749660492ZM6.23680749660492,7.231847496604919C5.841847496604919,6.583647496604919,6.583647496604919,5.841847496604919,7.23185749660492,6.23680749660492C7.23185749660492,6.23680749660492,8.27251749660492,4.5288774966049195,8.27251749660492,4.5288774966049195C5.833757496604919,3.0429274966049196,3.0429274966049196,5.833757496604919,4.5288774966049195,8.27250749660492C4.5288774966049195,8.27250749660492,6.23680749660492,7.231847496604919,6.23680749660492,7.231847496604919C6.23680749660492,7.231847496604919,6.23680749660492,7.231847496604919,6.23680749660492,7.231847496604919ZM4.553217496604919,11.29639749660492C6.345957496604919,10.861177496604919,7.196727496604919,8.807257496604919,6.23680749660492,7.231847496604919C6.23680749660492,7.231847496604919,4.5288774966049195,8.27250749660492,4.5288774966049195,8.27250749660492C4.784017496604919,8.69124749660492,4.5578974966049195,9.237167496604918,4.081387496604919,9.35284749660492C4.081387496604919,9.35284749660492,4.553217496604919,11.29639749660492,4.553217496604919,11.29639749660492C4.553217496604919,11.29639749660492,4.553217496604919,11.29639749660492,4.553217496604919,11.29639749660492ZM4.5532274966049195,12.70359749660492C3.8155874966049197,12.52449749660492,3.8155974966049193,11.475467496604919,4.553217496604919,11.29639749660492C4.553217496604919,11.29639749660492,4.081387496604919,9.35284749660492,4.081387496604919,9.35284749660492C1.3061994966049193,10.026577496604919,1.3061994966049193,13.97339749660492,4.081387496604919,14.64709749660492C4.081387496604919,14.64709749660492,4.5532274966049195,12.70359749660492,4.5532274966049195,12.70359749660492C4.5532274966049195,12.70359749660492,4.5532274966049195,12.70359749660492,4.5532274966049195,12.70359749660492ZM6.236817496604919,16.76809749660492C7.196727496604919,15.19269749660492,6.345957496604919,13.13879749660492,4.5532274966049195,12.70359749660492C4.5532274966049195,12.70359749660492,4.081387496604919,14.64709749660492,4.081387496604919,14.64709749660492C4.5578974966049195,14.76279749660492,4.784017496604919,15.30879749660492,4.52888749660492,15.727497496604919C4.52888749660492,15.727497496604919,6.236817496604919,16.76809749660492,6.236817496604919,16.76809749660492C6.236817496604919,16.76809749660492,6.236817496604919,16.76809749660492,6.236817496604919,16.76809749660492ZM7.23185749660492,17.763197496604917C6.583647496604919,18.15809749660492,5.84185749660492,17.41639749660492,6.236817496604919,16.76809749660492C6.236817496604919,16.76809749660492,4.52888749660492,15.727497496604919,4.52888749660492,15.727497496604919C3.0429274966049196,18.16619749660492,5.833757496604919,20.95709749660492,8.27251749660492,19.47109749660492C8.27251749660492,19.47109749660492,7.23185749660492,17.763197496604917,7.23185749660492,17.763197496604917C7.23185749660492,17.763197496604917,7.23185749660492,17.763197496604917,7.23185749660492,17.763197496604917ZM11.29639749660492,19.44679749660492C10.861177496604919,17.65399749660492,8.807257496604919,16.80329749660492,7.23185749660492,17.763197496604917C7.23185749660492,17.763197496604917,8.27251749660492,19.47109749660492,8.27251749660492,19.47109749660492C8.69124749660492,19.21599749660492,9.237167496604918,19.44209749660492,9.35284749660492,19.91859749660492C9.35284749660492,19.91859749660492,11.29639749660492,19.44679749660492,11.29639749660492,19.44679749660492C11.29639749660492,19.44679749660492,11.29639749660492,19.44679749660492,11.29639749660492,19.44679749660492ZM12.70359749660492,19.44679749660492C12.52449749660492,20.18439749660492,11.475467496604919,20.18439749660492,11.29639749660492,19.44679749660492C11.29639749660492,19.44679749660492,9.35284749660492,19.91859749660492,9.35284749660492,19.91859749660492C10.026577496604919,22.69379749660492,13.97339749660492,22.69379749660492,14.64709749660492,19.91859749660492C14.64709749660492,19.91859749660492,12.70359749660492,19.44679749660492,12.70359749660492,19.44679749660492C12.70359749660492,19.44679749660492,12.70359749660492,19.44679749660492,12.70359749660492,19.44679749660492ZM16.76809749660492,17.763197496604917C15.19269749660492,16.80329749660492,13.13879749660492,17.65399749660492,12.70359749660492,19.44679749660492C12.70359749660492,19.44679749660492,14.64709749660492,19.91859749660492,14.64709749660492,19.91859749660492C14.76279749660492,19.44209749660492,15.30879749660492,19.21599749660492,15.727497496604919,19.47109749660492C15.727497496604919,19.47109749660492,16.76809749660492,17.763197496604917,16.76809749660492,17.763197496604917C16.76809749660492,17.763197496604917,16.76809749660492,17.763197496604917,16.76809749660492,17.763197496604917ZM17.763197496604917,16.76809749660492C18.15809749660492,17.41639749660492,17.41639749660492,18.15809749660492,16.76809749660492,17.763197496604917C16.76809749660492,17.763197496604917,15.727497496604919,19.47109749660492,15.727497496604919,19.47109749660492C18.16619749660492,20.95709749660492,20.95709749660492,18.16619749660492,19.47109749660492,15.727497496604919C19.47109749660492,15.727497496604919,17.763197496604917,16.76809749660492,17.763197496604917,16.76809749660492C17.763197496604917,16.76809749660492,17.763197496604917,16.76809749660492,17.763197496604917,16.76809749660492ZM19.44679749660492,12.70359749660492C17.65399749660492,13.13879749660492,16.80329749660492,15.19269749660492,17.763197496604917,16.76809749660492C17.763197496604917,16.76809749660492,19.47109749660492,15.727497496604919,19.47109749660492,15.727497496604919C19.21599749660492,15.30879749660492,19.44209749660492,14.76279749660492,19.91859749660492,14.64709749660492C19.91859749660492,14.64709749660492,19.44679749660492,12.70359749660492,19.44679749660492,12.70359749660492C19.44679749660492,12.70359749660492,19.44679749660492,12.70359749660492,19.44679749660492,12.70359749660492ZM19.44679749660492,11.29639749660492C20.18439749660492,11.475467496604919,20.18439749660492,12.52449749660492,19.44679749660492,12.70359749660492C19.44679749660492,12.70359749660492,19.91859749660492,14.64709749660492,19.91859749660492,14.64709749660492C22.69379749660492,13.97339749660492,22.69379749660492,10.026577496604919,19.91859749660492,9.35284749660492C19.91859749660492,9.35284749660492,19.44679749660492,11.29639749660492,19.44679749660492,11.29639749660492C19.44679749660492,11.29639749660492,19.44679749660492,11.29639749660492,19.44679749660492,11.29639749660492ZM17.763197496604917,7.231847496604919C16.80329749660492,8.807257496604919,17.65399749660492,10.861177496604919,19.44679749660492,11.29639749660492C19.44679749660492,11.29639749660492,19.91859749660492,9.35284749660492,19.91859749660492,9.35284749660492C19.44209749660492,9.237167496604918,19.21599749660492,8.69124749660492,19.47109749660492,8.27250749660492C19.47109749660492,8.27250749660492,17.763197496604917,7.231847496604919,17.763197496604917,7.231847496604919C17.763197496604917,7.231847496604919,17.763197496604917,7.231847496604919,17.763197496604917,7.231847496604919ZM16.76809749660492,6.236817496604919C17.41639749660492,5.841847496604919,18.15809749660492,6.583637496604919,17.763197496604917,7.231847496604919C17.763197496604917,7.231847496604919,19.47109749660492,8.27250749660492,19.47109749660492,8.27250749660492C20.95709749660492,5.833757496604919,18.16619749660492,3.0429274966049196,15.727497496604919,4.5288774966049195C15.727497496604919,4.5288774966049195,16.76809749660492,6.236817496604919,16.76809749660492,6.236817496604919C16.76809749660492,6.236817496604919,16.76809749660492,6.236817496604919,16.76809749660492,6.236817496604919ZM12.70359749660492,4.5532274966049195C13.13879749660492,6.345957496604919,15.19269749660492,7.196727496604919,16.76809749660492,6.236817496604919C16.76809749660492,6.236817496604919,15.727497496604919,4.5288774966049195,15.727497496604919,4.5288774966049195C15.30879749660492,4.784017496604919,14.76279749660492,4.5578974966049195,14.64709749660492,4.081387496604919C14.64709749660492,4.081387496604919,12.70359749660492,4.5532274966049195,12.70359749660492,4.5532274966049195C12.70359749660492,4.5532274966049195,12.70359749660492,4.5532274966049195,12.70359749660492,4.5532274966049195ZM14.64709749660492,4.081387496604919C13.97339749660492,1.3061994966049193,10.026577496604919,1.3061994966049193,9.35284749660492,4.081387496604919C9.35284749660492,4.081387496604919,11.29639749660492,4.553217496604919,11.29639749660492,4.553217496604919C11.475467496604919,3.8155974966049193,12.52449749660492,3.8155874966049197,12.70359749660492,4.5532274966049195C12.70359749660492,4.5532274966049195,14.64709749660492,4.081387496604919,14.64709749660492,4.081387496604919C14.64709749660492,4.081387496604919,14.64709749660492,4.081387496604919,14.64709749660492,4.081387496604919ZM13.99999749660492,11.99999749660492C13.99999749660492,13.104597496604919,13.104597496604919,13.99999749660492,11.99999749660492,13.99999749660492C11.99999749660492,13.99999749660492,11.99999749660492,15.99999749660492,11.99999749660492,15.99999749660492C14.209097496604919,15.99999749660492,15.99999749660492,14.209097496604919,15.99999749660492,11.99999749660492C15.99999749660492,11.99999749660492,13.99999749660492,11.99999749660492,13.99999749660492,11.99999749660492C13.99999749660492,11.99999749660492,13.99999749660492,11.99999749660492,13.99999749660492,11.99999749660492ZM11.99999749660492,13.99999749660492C10.895427496604919,13.99999749660492,9.99999749660492,13.104597496604919,9.99999749660492,11.99999749660492C9.99999749660492,11.99999749660492,7.999997496604919,11.99999749660492,7.999997496604919,11.99999749660492C7.999997496604919,14.209097496604919,9.79085749660492,15.99999749660492,11.99999749660492,15.99999749660492C11.99999749660492,15.99999749660492,11.99999749660492,13.99999749660492,11.99999749660492,13.99999749660492C11.99999749660492,13.99999749660492,11.99999749660492,13.99999749660492,11.99999749660492,13.99999749660492ZM9.99999749660492,11.99999749660492C9.99999749660492,10.895427496604919,10.895427496604919,9.99999749660492,11.99999749660492,9.99999749660492C11.99999749660492,9.99999749660492,11.99999749660492,7.999997496604919,11.99999749660492,7.999997496604919C9.79085749660492,7.999997496604919,7.999997496604919,9.79085749660492,7.999997496604919,11.99999749660492C7.999997496604919,11.99999749660492,9.99999749660492,11.99999749660492,9.99999749660492,11.99999749660492C9.99999749660492,11.99999749660492,9.99999749660492,11.99999749660492,9.99999749660492,11.99999749660492ZM11.99999749660492,9.99999749660492C13.104597496604919,9.99999749660492,13.99999749660492,10.895427496604919,13.99999749660492,11.99999749660492C13.99999749660492,11.99999749660492,15.99999749660492,11.99999749660492,15.99999749660492,11.99999749660492C15.99999749660492,9.79085749660492,14.209097496604919,7.999997496604919,11.99999749660492,7.999997496604919C11.99999749660492,7.999997496604919,11.99999749660492,9.99999749660492,11.99999749660492,9.99999749660492C11.99999749660492,9.99999749660492,11.99999749660492,9.99999749660492,11.99999749660492,9.99999749660492Z" fill="#111827" fill-opacity="1"/></g></g></svg>