<svg xmlns="http://www.w3.org/2000/svg" xmlns:xlink="http://www.w3.org/1999/xlink" fill="none" version="1.1" width="24" height="24" viewBox="0 0 24 24"><defs><clipPath id="master_svg0_0_46"><rect x="0" y="0" width="24" height="24" rx="0"/></clipPath></defs><g style="mix-blend-mode:passthrough" clip-path="url(#master_svg0_0_46)"><g style="mix-blend-mode:passthrough"><path d="M5,11C4.44772,11,4,11.44772,4,12C4,12.55228,4.44772,13,5,13C5,13,5,11,5,11C5,11,5,11,5,11ZM5.01,13C5.5622799999999994,13,6.01,12.55228,6.01,12C6.01,11.44772,5.5622799999999994,11,5.01,11C5.01,11,5.01,13,5.01,13C5.01,13,5.01,13,5.01,13ZM12,11C11.44772,11,11,11.44772,11,12C11,12.55228,11.44772,13,12,13C12,13,12,11,12,11C12,11,12,11,12,11ZM12.01,13C12.56229,13,13.01,12.55228,13.01,12C13.01,11.44772,12.56229,11,12.01,11C12.01,11,12.01,13,12.01,13C12.01,13,12.01,13,12.01,13ZM19,11C18.447699999999998,11,18,11.44772,18,12C18,12.55228,18.447699999999998,13,19,13C19,13,19,11,19,11C19,11,19,11,19,11ZM19.01,13C19.5623,13,20.01,12.55228,20.01,12C20.01,11.44772,19.5623,11,19.01,11C19.01,11,19.01,13,19.01,13C19.01,13,19.01,13,19.01,13ZM5,12C5,12,5,14,5,14C6.10457,14,7,13.104569999999999,7,12C7,12,5,12,5,12C5,12,5,12,5,12ZM5,12C5,12,3,12,3,12C3,13.104569999999999,3.89543,14,5,14C5,14,5,12,5,12C5,12,5,12,5,12ZM5,12C5,12,5,10,5,10C3.89543,10,3,10.89543,3,12C3,12,5,12,5,12C5,12,5,12,5,12ZM5,12C5,12,7,12,7,12C7,10.89543,6.10457,10,5,10C5,10,5,12,5,12C5,12,5,12,5,12ZM12,12C12,12,12,14,12,14C13.1046,14,14,13.104569999999999,14,12C14,12,12,12,12,12C12,12,12,12,12,12ZM12,12C12,12,10,12,10,12C10,13.104569999999999,10.895430000000001,14,12,14C12,14,12,12,12,12C12,12,12,12,12,12ZM12,12C12,12,12,10,12,10C10.895430000000001,10,10,10.89543,10,12C10,12,12,12,12,12C12,12,12,12,12,12ZM12,12C12,12,14,12,14,12C14,10.89543,13.1046,10,12,10C12,10,12,12,12,12C12,12,12,12,12,12ZM19,12C19,12,19,14,19,14C20.1046,14,21,13.104569999999999,21,12C21,12,19,12,19,12C19,12,19,12,19,12ZM19,12C19,12,17,12,17,12C17,13.104569999999999,17.895400000000002,14,19,14C19,14,19,12,19,12C19,12,19,12,19,12ZM19,12C19,12,19,10,19,10C17.895400000000002,10,17,10.89543,17,12C17,12,19,12,19,12C19,12,19,12,19,12ZM19,12C19,12,21,12,21,12C21,10.89543,20.1046,10,19,10C19,10,19,12,19,12C19,12,19,12,19,12ZM5,13C5,13,5.01,13,5.01,13C5.01,13,5.01,11,5.01,11C5.01,11,5,11,5,11C5,11,5,13,5,13C5,13,5,13,5,13ZM12,13C12,13,12.01,13,12.01,13C12.01,13,12.01,11,12.01,11C12.01,11,12,11,12,11C12,11,12,13,12,13C12,13,12,13,12,13ZM19,13C19,13,19.01,13,19.01,13C19.01,13,19.01,11,19.01,11C19.01,11,19,11,19,11C19,11,19,13,19,13C19,13,19,13,19,13Z" fill="#111827" fill-opacity="1"/></g></g></svg>