<svg xmlns="http://www.w3.org/2000/svg" xmlns:xlink="http://www.w3.org/1999/xlink" fill="none" version="1.1" width="24" height="24" viewBox="0 0 24 24"><defs><clipPath id="master_svg0_0_70"><rect x="0" y="0" width="24" height="24" rx="0"/></clipPath></defs><g style="mix-blend-mode:passthrough" clip-path="url(#master_svg0_0_70)"><g style="mix-blend-mode:passthrough" transform="matrix(0,1,-1,0,17,-11)"><path d="M16,4C15.44772,4,15,4.44772,15,5C15,5.55228,15.44772,6,16,6C16,6,16,4,16,4C16,4,16,4,16,4ZM16.009999999999998,6C16.56228,6,17.009999999999998,5.55228,17.009999999999998,5C17.009999999999998,4.44772,16.56228,4,16.009999999999998,4C16.009999999999998,4,16.009999999999998,6,16.009999999999998,6C16.009999999999998,6,16.009999999999998,6,16.009999999999998,6ZM23,4C22.44772,4,22,4.44772,22,5C22,5.55228,22.44772,6,23,6C23,6,23,4,23,4C23,4,23,4,23,4ZM23.009999999999998,6C23.56229,6,24.009999999999998,5.55228,24.009999999999998,5C24.009999999999998,4.44772,23.56229,4,23.009999999999998,4C23.009999999999998,4,23.009999999999998,6,23.009999999999998,6C23.009999999999998,6,23.009999999999998,6,23.009999999999998,6ZM30,4C29.447699999999998,4,29,4.44772,29,5C29,5.55228,29.447699999999998,6,30,6C30,6,30,4,30,4C30,4,30,4,30,4ZM30.01,6C30.5623,6,31.01,5.55228,31.01,5C31.01,4.44772,30.5623,4,30.01,4C30.01,4,30.01,6,30.01,6C30.01,6,30.01,6,30.01,6ZM16,5C16,5,16,7,16,7C17.10457,7,18,6.10457,18,5C18,5,16,5,16,5C16,5,16,5,16,5ZM16,5C16,5,14,5,14,5C14,6.10457,14.89543,7,16,7C16,7,16,5,16,5C16,5,16,5,16,5ZM16,5C16,5,16,3,16,3C14.89543,3,14,3.89543,14,5C14,5,16,5,16,5C16,5,16,5,16,5ZM16,5C16,5,18,5,18,5C18,3.89543,17.10457,3,16,3C16,3,16,5,16,5C16,5,16,5,16,5ZM23,5C23,5,23,7,23,7C24.104599999999998,7,25,6.10457,25,5C25,5,23,5,23,5C23,5,23,5,23,5ZM23,5C23,5,21,5,21,5C21,6.10457,21.89543,7,23,7C23,7,23,5,23,5C23,5,23,5,23,5ZM23,5C23,5,23,3,23,3C21.89543,3,21,3.89543,21,5C21,5,23,5,23,5C23,5,23,5,23,5ZM23,5C23,5,25,5,25,5C25,3.89543,24.104599999999998,3,23,3C23,3,23,5,23,5C23,5,23,5,23,5ZM30,5C30,5,30,7,30,7C31.1046,7,32,6.10457,32,5C32,5,30,5,30,5C30,5,30,5,30,5ZM30,5C30,5,28,5,28,5C28,6.10457,28.895400000000002,7,30,7C30,7,30,5,30,5C30,5,30,5,30,5ZM30,5C30,5,30,3,30,3C28.895400000000002,3,28,3.89543,28,5C28,5,30,5,30,5C30,5,30,5,30,5ZM30,5C30,5,32,5,32,5C32,3.89543,31.1046,3,30,3C30,3,30,5,30,5C30,5,30,5,30,5ZM16,6C16,6,16.009999999999998,6,16.009999999999998,6C16.009999999999998,6,16.009999999999998,4,16.009999999999998,4C16.009999999999998,4,16,4,16,4C16,4,16,6,16,6C16,6,16,6,16,6ZM23,6C23,6,23.009999999999998,6,23.009999999999998,6C23.009999999999998,6,23.009999999999998,4,23.009999999999998,4C23.009999999999998,4,23,4,23,4C23,4,23,6,23,6C23,6,23,6,23,6ZM30,6C30,6,30.01,6,30.01,6C30.01,6,30.01,4,30.01,4C30.01,4,30,4,30,4C30,4,30,6,30,6C30,6,30,6,30,6Z" fill="#111827" fill-opacity="1"/></g></g></svg>