<svg xmlns="http://www.w3.org/2000/svg" xmlns:xlink="http://www.w3.org/1999/xlink" fill="none" version="1.1" width="24" height="24" viewBox="0 0 24 24"><defs><clipPath id="master_svg0_0_276"><rect x="0" y="0" width="24" height="24" rx="0"/></clipPath></defs><g style="mix-blend-mode:passthrough" clip-path="url(#master_svg0_0_276)"><g style="mix-blend-mode:passthrough"><path d="M10,7C10.55228,7,11,6.55228,11,6C11,5.44772,10.55228,5,10,5C10,5,10,7,10,7C10,7,10,7,10,7ZM19,14C19,13.4477,18.552300000000002,13,18,13C17.447699999999998,13,17,13.4477,17,14C17,14,19,14,19,14C19,14,19,14,19,14ZM14,3C13.4477,3,13,3.447715,13,4C13,4.55228,13.4477,5,14,5C14,5,14,3,14,3C14,3,14,3,14,3ZM20,4C20,4,21,4,21,4C21,3.447715,20.5523,3,20,3C20,3,20,4,20,4C20,4,20,4,20,4ZM19,10C19,10.55228,19.4477,11,20,11C20.5523,11,21,10.55228,21,10C21,10,19,10,19,10C19,10,19,10,19,10ZM9.29289,13.2929C8.902370000000001,13.6834,8.902370000000001,14.3166,9.29289,14.7071C9.68342,15.0976,10.31658,15.0976,10.70711,14.7071C10.70711,14.7071,9.29289,13.2929,9.29289,13.2929C9.29289,13.2929,9.29289,13.2929,9.29289,13.2929ZM16,19C16,19,6,19,6,19C6,19,6,21,6,21C6,21,16,21,16,21C16,21,16,19,16,19C16,19,16,19,16,19ZM5,18C5,18,5,8,5,8C5,8,3,8,3,8C3,8,3,18,3,18C3,18,5,18,5,18C5,18,5,18,5,18ZM6,7C6,7,10,7,10,7C10,7,10,5,10,5C10,5,6,5,6,5C6,5,6,7,6,7C6,7,6,7,6,7ZM17,14C17,14,17,18,17,18C17,18,19,18,19,18C19,18,19,14,19,14C19,14,17,14,17,14C17,14,17,14,17,14ZM6,19C5.44772,19,5,18.552300000000002,5,18C5,18,3,18,3,18C3,19.6569,4.34315,21,6,21C6,21,6,19,6,19C6,19,6,19,6,19ZM16,21C17.6569,21,19,19.6569,19,18C19,18,17,18,17,18C17,18.552300000000002,16.552300000000002,19,16,19C16,19,16,21,16,21C16,21,16,21,16,21ZM5,8C5,7.44772,5.44772,7,6,7C6,7,6,5,6,5C4.34315,5,3,6.34315,3,8C3,8,5,8,5,8C5,8,5,8,5,8ZM14,5C14,5,20,5,20,5C20,5,20,3,20,3C20,3,14,3,14,3C14,3,14,5,14,5C14,5,14,5,14,5ZM19,4C19,4,19,10,19,10C19,10,21,10,21,10C21,10,21,4,21,4C21,4,19,4,19,4C19,4,19,4,19,4ZM19.2929,3.292893C19.2929,3.292893,9.29289,13.2929,9.29289,13.2929C9.29289,13.2929,10.70711,14.7071,10.70711,14.7071C10.70711,14.7071,20.7071,4.70711,20.7071,4.70711C20.7071,4.70711,19.2929,3.292893,19.2929,3.292893C19.2929,3.292893,19.2929,3.292893,19.2929,3.292893Z" fill="#111827" fill-opacity="1"/></g></g></svg>