<svg xmlns="http://www.w3.org/2000/svg" xmlns:xlink="http://www.w3.org/1999/xlink" fill="none" version="1.1" width="24" height="24" viewBox="0 0 24 24"><defs><clipPath id="master_svg0_0_218"><rect x="0" y="0" width="24" height="24" rx="0"/></clipPath></defs><g style="mix-blend-mode:passthrough" clip-path="url(#master_svg0_0_218)"><g style="mix-blend-mode:passthrough"><path d="M2.4582496881484985,11.999970000000001C2.4582496881484985,11.999970000000001,1.5042038881484985,11.70031,1.5042038881484985,11.70031C1.4429318881484985,11.89538,1.4429318881484985,12.10454,1.5042018881484984,12.29961C1.5042018881484984,12.29961,2.4582496881484985,11.999970000000001,2.4582496881484985,11.999970000000001C2.4582496881484985,11.999970000000001,2.4582496881484985,11.999970000000001,2.4582496881484985,11.999970000000001ZM21.542649688148497,12.00004C21.542649688148497,12.00004,22.496649688148498,12.29969,22.496649688148498,12.29969C22.557949688148497,12.10462,22.557949688148497,11.89546,22.496649688148498,11.700389999999999C22.496649688148498,11.700389999999999,21.542649688148497,12.00004,21.542649688148497,12.00004C21.542649688148497,12.00004,21.542649688148497,12.00004,21.542649688148497,12.00004ZM13.999949688148499,12C13.999949688148499,13.10457,13.104549688148499,14,12.000049688148499,14C12.000049688148499,14,12.000049688148499,16,12.000049688148499,16C14.209149688148498,16,15.999949688148499,14.2091,15.999949688148499,12C15.999949688148499,12,13.999949688148499,12,13.999949688148499,12C13.999949688148499,12,13.999949688148499,12,13.999949688148499,12ZM12.000049688148499,14C10.895429688148498,14,9.999999688148499,13.10457,9.999999688148499,12C9.999999688148499,12,7.999999688148499,12,7.999999688148499,12C7.999999688148499,14.2091,9.7908596881485,16,12.000049688148499,16C12.000049688148499,16,12.000049688148499,14,12.000049688148499,14C12.000049688148499,14,12.000049688148499,14,12.000049688148499,14ZM9.999999688148499,12C9.999999688148499,10.895430000000001,10.895429688148498,10,12.000049688148499,10C12.000049688148499,10,12.000049688148499,8,12.000049688148499,8C9.7908596881485,8,7.999999688148499,9.79086,7.999999688148499,12C7.999999688148499,12,9.999999688148499,12,9.999999688148499,12C9.999999688148499,12,9.999999688148499,12,9.999999688148499,12ZM12.000049688148499,10C13.104549688148499,10,13.999949688148499,10.895430000000001,13.999949688148499,12C13.999949688148499,12,15.999949688148499,12,15.999949688148499,12C15.999949688148499,9.79086,14.209149688148498,8,12.000049688148499,8C12.000049688148499,8,12.000049688148499,10,12.000049688148499,10C12.000049688148499,10,12.000049688148499,10,12.000049688148499,10ZM3.4122996881484986,12.29962C4.559429688148498,8.64733,7.972079688148498,6,12.000449688148498,6C12.000449688148498,6,12.000449688148498,4,12.000449688148498,4C7.073529688148499,4,2.905619688148499,7.23842,1.5042038881484985,11.70031C1.5042038881484985,11.70031,3.4122996881484986,12.29962,3.4122996881484986,12.29962C3.4122996881484986,12.29962,3.4122996881484986,12.29962,3.4122996881484986,12.29962ZM12.000449688148498,6C16.028849688148497,6,19.4414496881485,8.647369999999999,20.588549688148497,12.29968C20.588549688148497,12.29968,22.496649688148498,11.700389999999999,22.496649688148498,11.700389999999999C21.0953496881485,7.23846,16.927349688148496,4,12.000449688148498,4C12.000449688148498,4,12.000449688148498,6,12.000449688148498,6C12.000449688148498,6,12.000449688148498,6,12.000449688148498,6ZM20.588549688148497,11.70038C19.4414496881485,15.3527,16.028849688148497,18,12.000449688148498,18C12.000449688148498,18,12.000449688148498,20,12.000449688148498,20C16.927349688148496,20,21.0952496881485,16.7616,22.496649688148498,12.29969C22.496649688148498,12.29969,20.588549688148497,11.70038,20.588549688148497,11.70038C20.588549688148497,11.70038,20.588549688148497,11.70038,20.588549688148497,11.70038ZM12.000449688148498,18C7.972079688148498,18,4.559409688148499,15.3526,3.4122996881484986,11.70032C3.4122996881484986,11.70032,1.5042018881484984,12.29961,1.5042018881484984,12.29961C2.9055996881484987,16.761499999999998,7.073529688148499,20,12.000449688148498,20C12.000449688148498,20,12.000449688148498,18,12.000449688148498,18C12.000449688148498,18,12.000449688148498,18,12.000449688148498,18Z" fill="#111827" fill-opacity="1"/></g></g></svg>