<svg xmlns="http://www.w3.org/2000/svg" xmlns:xlink="http://www.w3.org/1999/xlink" fill="none" version="1.1" width="24" height="24" viewBox="0 0 24 24"><defs><clipPath id="master_svg0_0_76"><rect x="0" y="0" width="24" height="24" rx="0"/></clipPath></defs><g style="mix-blend-mode:passthrough" clip-path="url(#master_svg0_0_76)"><g style="mix-blend-mode:passthrough"><path d="M2.2928927152557375,11.292890715255737C1.9023700152557372,11.683420715255737,1.9023700152557372,12.316600715255737,2.2928927152557375,12.707100715255738C2.6834167152557376,13.097600715255737,3.3165807152557374,13.097600715255737,3.7071107152557374,12.707100715255738C3.7071107152557374,12.707100715255738,2.2928927152557375,11.292890715255737,2.2928927152557375,11.292890715255737C2.2928927152557375,11.292890715255737,2.2928927152557375,11.292890715255737,2.2928927152557375,11.292890715255737ZM12.000000715255737,2.999999715255737C12.000000715255737,2.999999715255737,12.707100715255738,2.2928927152557375,12.707100715255738,2.2928927152557375C12.316600715255737,1.9023700152557372,11.683420715255737,1.9023700152557372,11.292890715255737,2.2928927152557375C11.292890715255737,2.2928927152557375,12.000000715255737,2.999999715255737,12.000000715255737,2.999999715255737C12.000000715255737,2.999999715255737,12.000000715255737,2.999999715255737,12.000000715255737,2.999999715255737ZM20.292900715255737,12.707100715255738C20.683400715255736,13.097600715255737,21.31660071525574,13.097600715255737,21.707100715255738,12.707100715255738C22.097600715255737,12.316600715255737,22.097600715255737,11.683420715255737,21.707100715255738,11.292890715255737C21.707100715255738,11.292890715255737,20.292900715255737,12.707100715255738,20.292900715255737,12.707100715255738C20.292900715255737,12.707100715255738,20.292900715255737,12.707100715255738,20.292900715255737,12.707100715255738ZM3.7071107152557374,12.707100715255738C3.7071107152557374,12.707100715255738,5.707110715255737,10.707110715255737,5.707110715255737,10.707110715255737C5.707110715255737,10.707110715255737,4.292890715255737,9.292890715255737,4.292890715255737,9.292890715255737C4.292890715255737,9.292890715255737,2.2928927152557375,11.292890715255737,2.2928927152557375,11.292890715255737C2.2928927152557375,11.292890715255737,3.7071107152557374,12.707100715255738,3.7071107152557374,12.707100715255738C3.7071107152557374,12.707100715255738,3.7071107152557374,12.707100715255738,3.7071107152557374,12.707100715255738ZM5.707110715255737,10.707110715255737C5.707110715255737,10.707110715255737,12.707100715255738,3.7071107152557374,12.707100715255738,3.7071107152557374C12.707100715255738,3.7071107152557374,11.292890715255737,2.2928927152557375,11.292890715255737,2.2928927152557375C11.292890715255737,2.2928927152557375,4.292890715255737,9.292890715255737,4.292890715255737,9.292890715255737C4.292890715255737,9.292890715255737,5.707110715255737,10.707110715255737,5.707110715255737,10.707110715255737C5.707110715255737,10.707110715255737,5.707110715255737,10.707110715255737,5.707110715255737,10.707110715255737ZM11.292890715255737,3.7071107152557374C11.292890715255737,3.7071107152557374,18.292900715255737,10.707110715255737,18.292900715255737,10.707110715255737C18.292900715255737,10.707110715255737,19.707100715255738,9.292890715255737,19.707100715255738,9.292890715255737C19.707100715255738,9.292890715255737,12.707100715255738,2.2928927152557375,12.707100715255738,2.2928927152557375C12.707100715255738,2.2928927152557375,11.292890715255737,3.7071107152557374,11.292890715255737,3.7071107152557374C11.292890715255737,3.7071107152557374,11.292890715255737,3.7071107152557374,11.292890715255737,3.7071107152557374ZM18.292900715255737,10.707110715255737C18.292900715255737,10.707110715255737,20.292900715255737,12.707100715255738,20.292900715255737,12.707100715255738C20.292900715255737,12.707100715255738,21.707100715255738,11.292890715255737,21.707100715255738,11.292890715255737C21.707100715255738,11.292890715255737,19.707100715255738,9.292890715255737,19.707100715255738,9.292890715255737C19.707100715255738,9.292890715255737,18.292900715255737,10.707110715255737,18.292900715255737,10.707110715255737C18.292900715255737,10.707110715255737,18.292900715255737,10.707110715255737,18.292900715255737,10.707110715255737ZM4.000000715255737,10.000000715255737C4.000000715255737,10.000000715255737,4.000000715255737,20.000000715255737,4.000000715255737,20.000000715255737C4.000000715255737,20.000000715255737,6.000000715255737,20.000000715255737,6.000000715255737,20.000000715255737C6.000000715255737,20.000000715255737,6.000000715255737,10.000000715255737,6.000000715255737,10.000000715255737C6.000000715255737,10.000000715255737,4.000000715255737,10.000000715255737,4.000000715255737,10.000000715255737C4.000000715255737,10.000000715255737,4.000000715255737,10.000000715255737,4.000000715255737,10.000000715255737ZM6.000000715255737,22.000000715255737C6.000000715255737,22.000000715255737,9.000000715255737,22.000000715255737,9.000000715255737,22.000000715255737C9.000000715255737,22.000000715255737,9.000000715255737,20.000000715255737,9.000000715255737,20.000000715255737C9.000000715255737,20.000000715255737,6.000000715255737,20.000000715255737,6.000000715255737,20.000000715255737C6.000000715255737,20.000000715255737,6.000000715255737,22.000000715255737,6.000000715255737,22.000000715255737C6.000000715255737,22.000000715255737,6.000000715255737,22.000000715255737,6.000000715255737,22.000000715255737ZM11.000000715255737,20.000000715255737C11.000000715255737,20.000000715255737,11.000000715255737,16.000000715255737,11.000000715255737,16.000000715255737C11.000000715255737,16.000000715255737,9.000000715255737,16.000000715255737,9.000000715255737,16.000000715255737C9.000000715255737,16.000000715255737,9.000000715255737,20.000000715255737,9.000000715255737,20.000000715255737C9.000000715255737,20.000000715255737,11.000000715255737,20.000000715255737,11.000000715255737,20.000000715255737C11.000000715255737,20.000000715255737,11.000000715255737,20.000000715255737,11.000000715255737,20.000000715255737ZM11.000000715255737,16.000000715255737C11.000000715255737,16.000000715255737,13.000000715255737,16.000000715255737,13.000000715255737,16.000000715255737C13.000000715255737,16.000000715255737,13.000000715255737,14.000000715255737,13.000000715255737,14.000000715255737C13.000000715255737,14.000000715255737,11.000000715255737,14.000000715255737,11.000000715255737,14.000000715255737C11.000000715255737,14.000000715255737,11.000000715255737,16.000000715255737,11.000000715255737,16.000000715255737C11.000000715255737,16.000000715255737,11.000000715255737,16.000000715255737,11.000000715255737,16.000000715255737ZM13.000000715255737,16.000000715255737C13.000000715255737,16.000000715255737,13.000000715255737,20.000000715255737,13.000000715255737,20.000000715255737C13.000000715255737,20.000000715255737,15.000000715255737,20.000000715255737,15.000000715255737,20.000000715255737C15.000000715255737,20.000000715255737,15.000000715255737,16.000000715255737,15.000000715255737,16.000000715255737C15.000000715255737,16.000000715255737,13.000000715255737,16.000000715255737,13.000000715255737,16.000000715255737C13.000000715255737,16.000000715255737,13.000000715255737,16.000000715255737,13.000000715255737,16.000000715255737ZM15.000000715255737,22.000000715255737C15.000000715255737,22.000000715255737,18.000000715255737,22.000000715255737,18.000000715255737,22.000000715255737C18.000000715255737,22.000000715255737,18.000000715255737,20.000000715255737,18.000000715255737,20.000000715255737C18.000000715255737,20.000000715255737,15.000000715255737,20.000000715255737,15.000000715255737,20.000000715255737C15.000000715255737,20.000000715255737,15.000000715255737,22.000000715255737,15.000000715255737,22.000000715255737C15.000000715255737,22.000000715255737,15.000000715255737,22.000000715255737,15.000000715255737,22.000000715255737ZM20.000000715255737,20.000000715255737C20.000000715255737,20.000000715255737,20.000000715255737,10.000000715255737,20.000000715255737,10.000000715255737C20.000000715255737,10.000000715255737,18.000000715255737,10.000000715255737,18.000000715255737,10.000000715255737C18.000000715255737,10.000000715255737,18.000000715255737,20.000000715255737,18.000000715255737,20.000000715255737C18.000000715255737,20.000000715255737,20.000000715255737,20.000000715255737,20.000000715255737,20.000000715255737C20.000000715255737,20.000000715255737,20.000000715255737,20.000000715255737,20.000000715255737,20.000000715255737ZM18.000000715255737,22.000000715255737C19.10460071525574,22.000000715255737,20.000000715255737,21.10460071525574,20.000000715255737,20.000000715255737C20.000000715255737,20.000000715255737,18.000000715255737,20.000000715255737,18.000000715255737,20.000000715255737C18.000000715255737,20.000000715255737,18.000000715255737,22.000000715255737,18.000000715255737,22.000000715255737C18.000000715255737,22.000000715255737,18.000000715255737,22.000000715255737,18.000000715255737,22.000000715255737ZM13.000000715255737,20.000000715255737C13.000000715255737,21.10460071525574,13.895400715255738,22.000000715255737,15.000000715255737,22.000000715255737C15.000000715255737,22.000000715255737,15.000000715255737,20.000000715255737,15.000000715255737,20.000000715255737C15.000000715255737,20.000000715255737,13.000000715255737,20.000000715255737,13.000000715255737,20.000000715255737C13.000000715255737,20.000000715255737,13.000000715255737,20.000000715255737,13.000000715255737,20.000000715255737ZM13.000000715255737,16.000000715255737C13.000000715255737,16.000000715255737,15.000000715255737,16.000000715255737,15.000000715255737,16.000000715255737C15.000000715255737,14.895400715255738,14.104600715255737,14.000000715255737,13.000000715255737,14.000000715255737C13.000000715255737,14.000000715255737,13.000000715255737,16.000000715255737,13.000000715255737,16.000000715255737C13.000000715255737,16.000000715255737,13.000000715255737,16.000000715255737,13.000000715255737,16.000000715255737ZM11.000000715255737,16.000000715255737C11.000000715255737,16.000000715255737,11.000000715255737,14.000000715255737,11.000000715255737,14.000000715255737C9.895430715255738,14.000000715255737,9.000000715255737,14.895400715255738,9.000000715255737,16.000000715255737C9.000000715255737,16.000000715255737,11.000000715255737,16.000000715255737,11.000000715255737,16.000000715255737C11.000000715255737,16.000000715255737,11.000000715255737,16.000000715255737,11.000000715255737,16.000000715255737ZM9.000000715255737,22.000000715255737C10.104570715255738,22.000000715255737,11.000000715255737,21.10460071525574,11.000000715255737,20.000000715255737C11.000000715255737,20.000000715255737,9.000000715255737,20.000000715255737,9.000000715255737,20.000000715255737C9.000000715255737,20.000000715255737,9.000000715255737,22.000000715255737,9.000000715255737,22.000000715255737C9.000000715255737,22.000000715255737,9.000000715255737,22.000000715255737,9.000000715255737,22.000000715255737ZM4.000000715255737,20.000000715255737C4.000000715255737,21.10460071525574,4.8954307152557375,22.000000715255737,6.000000715255737,22.000000715255737C6.000000715255737,22.000000715255737,6.000000715255737,20.000000715255737,6.000000715255737,20.000000715255737C6.000000715255737,20.000000715255737,4.000000715255737,20.000000715255737,4.000000715255737,20.000000715255737C4.000000715255737,20.000000715255737,4.000000715255737,20.000000715255737,4.000000715255737,20.000000715255737ZM9.000000715255737,22.000000715255737C9.000000715255737,22.000000715255737,15.000000715255737,22.000000715255737,15.000000715255737,22.000000715255737C15.000000715255737,22.000000715255737,15.000000715255737,20.000000715255737,15.000000715255737,20.000000715255737C15.000000715255737,20.000000715255737,9.000000715255737,20.000000715255737,9.000000715255737,20.000000715255737C9.000000715255737,20.000000715255737,9.000000715255737,22.000000715255737,9.000000715255737,22.000000715255737C9.000000715255737,22.000000715255737,9.000000715255737,22.000000715255737,9.000000715255737,22.000000715255737Z" fill="#111827" fill-opacity="1"/></g></g></svg>