<svg xmlns="http://www.w3.org/2000/svg" xmlns:xlink="http://www.w3.org/1999/xlink" fill="none" version="1.1" width="24" height="24" viewBox="0 0 24 24"><defs><clipPath id="master_svg0_0_250"><rect x="0" y="0" width="24" height="24" rx="0"/></clipPath></defs><g style="mix-blend-mode:passthrough" clip-path="url(#master_svg0_0_250)"><g style="mix-blend-mode:passthrough"><path d="M8.171566542930602,10.171566542930602C8.171566542930602,10.171566542930602,8.878676542930602,10.878676542930602,8.878676542930602,10.878676542930602C8.878676542930602,10.878676542930602,8.171566542930602,10.171566542930602,8.171566542930602,10.171566542930602C8.171566542930602,10.171566542930602,8.171566542930602,10.171566542930602,8.171566542930602,10.171566542930602ZM13.121296542930603,10.878676542930602C13.511796542930602,11.269196542930603,14.144996542930603,11.269196542930603,14.535496542930604,10.878676542930602C14.926096542930603,10.488146542930602,14.926096542930603,9.854986542930604,14.535496542930604,9.464466542930603C14.535496542930604,9.464466542930603,13.121296542930603,10.878676542930602,13.121296542930603,10.878676542930602C13.121296542930603,10.878676542930602,13.121296542930603,10.878676542930602,13.121296542930603,10.878676542930602ZM9.828426542930604,19.8283965429306C9.828426542930604,19.8283965429306,9.121316542930604,19.121296542930605,9.121316542930604,19.121296542930605C9.121316542930604,19.121296542930605,9.121316542930604,19.121296542930605,9.121316542930604,19.121296542930605C9.121316542930604,19.121296542930605,9.828426542930604,19.8283965429306,9.828426542930604,19.8283965429306C9.828426542930604,19.8283965429306,9.828426542930604,19.8283965429306,9.828426542930604,19.8283965429306ZM4.171566542930603,19.8283965429306C4.171566542930603,19.8283965429306,3.464466542930603,20.535496542930602,3.464466542930603,20.535496542930602C3.464466542930603,20.535496542930602,3.464466542930603,20.535496542930602,3.464466542930603,20.535496542930602C3.464466542930603,20.535496542930602,4.171566542930603,19.8283965429306,4.171566542930603,19.8283965429306C4.171566542930603,19.8283965429306,4.171566542930603,19.8283965429306,4.171566542930603,19.8283965429306ZM4.171566542930603,14.171596542930603C4.171566542930603,14.171596542930603,4.878676542930603,14.878696542930603,4.878676542930603,14.878696542930603C4.878676542930603,14.878696542930603,4.171566542930603,14.171596542930603,4.171566542930603,14.171596542930603C4.171566542930603,14.171596542930603,4.171566542930603,14.171596542930603,4.171566542930603,14.171596542930603ZM11.637096542930603,19.433996542930604C12.027596542930603,19.0433965429306,12.027596542930603,18.410296542930602,11.637096542930603,18.019796542930603C11.246566542930603,17.629196542930604,10.613406542930603,17.629196542930604,10.222876542930603,18.019796542930603C10.222876542930603,18.019796542930603,11.637096542930603,19.433996542930604,11.637096542930603,19.433996542930604C11.637096542930603,19.433996542930604,11.637096542930603,19.433996542930604,11.637096542930603,19.433996542930604ZM14.171596542930603,4.171566542930603C14.171596542930603,4.171566542930603,13.464496542930602,3.464466542930603,13.464496542930602,3.464466542930603C13.464496542930602,3.464466542930603,13.464496542930602,3.464466542930603,13.464496542930602,3.464466542930603C13.464496542930602,3.464466542930603,14.171596542930603,4.171566542930603,14.171596542930603,4.171566542930603C14.171596542930603,4.171566542930603,14.171596542930603,4.171566542930603,14.171596542930603,4.171566542930603ZM19.8283965429306,4.171566542930603C19.8283965429306,4.171566542930603,19.121296542930605,4.878676542930603,19.121296542930605,4.878676542930603C19.121296542930605,4.878676542930603,19.121296542930605,4.878676542930603,19.121296542930605,4.878676542930603C19.121296542930605,4.878676542930603,19.8283965429306,4.171566542930603,19.8283965429306,4.171566542930603C19.8283965429306,4.171566542930603,19.8283965429306,4.171566542930603,19.8283965429306,4.171566542930603ZM19.8283965429306,9.828426542930604C19.8283965429306,9.828426542930604,19.121296542930605,9.121316542930604,19.121296542930605,9.121316542930604C19.121296542930605,9.121316542930604,19.121296542930605,9.121316542930604,19.121296542930605,9.121316542930604C19.121296542930605,9.121316542930604,19.8283965429306,9.828426542930604,19.8283965429306,9.828426542930604C19.8283965429306,9.828426542930604,19.8283965429306,9.828426542930604,19.8283965429306,9.828426542930604ZM15.828396542930603,13.828396542930603C15.828396542930603,13.828396542930603,15.121296542930603,13.121296542930603,15.121296542930603,13.121296542930603C15.121296542930603,13.121296542930603,15.828396542930603,13.828396542930603,15.828396542930603,13.828396542930603C15.828396542930603,13.828396542930603,15.828396542930603,13.828396542930603,15.828396542930603,13.828396542930603ZM10.878676542930602,13.121296542930603C10.488146542930602,12.730796542930603,9.854986542930604,12.730796542930603,9.464466542930603,13.121296542930603C9.073936542930603,13.511796542930602,9.073936542930603,14.144996542930603,9.464466542930603,14.535496542930604C9.464466542930603,14.535496542930604,10.878676542930602,13.121296542930603,10.878676542930602,13.121296542930603C10.878676542930602,13.121296542930603,10.878676542930602,13.121296542930603,10.878676542930602,13.121296542930603ZM12.364896542930603,4.564076542930604C11.974326542930603,4.954596542930603,11.974326542930603,5.587766542930603,12.364896542930603,5.9782865429306025C12.755396542930603,6.368806542930603,13.388496542930604,6.368806542930603,13.779096542930603,5.9782865429306025C13.779096542930603,5.9782865429306025,12.364896542930603,4.564076542930604,12.364896542930603,4.564076542930604C12.364896542930603,4.564076542930604,12.364896542930603,4.564076542930604,12.364896542930603,4.564076542930604ZM8.878676542930602,10.878676542930602C10.050246542930603,9.707106542930603,11.949746542930603,9.707106542930603,13.121296542930603,10.878676542930602C13.121296542930603,10.878676542930602,14.535496542930604,9.464466542930603,14.535496542930604,9.464466542930603C12.582896542930603,7.511836542930603,9.417086542930603,7.511836542930603,7.464466542930603,9.464466542930603C7.464466542930603,9.464466542930603,8.878676542930602,10.878676542930602,8.878676542930602,10.878676542930602C8.878676542930602,10.878676542930602,8.878676542930602,10.878676542930602,8.878676542930602,10.878676542930602ZM9.121316542930604,19.121296542930605C7.949746542930603,20.292896542930603,6.050246542930603,20.292896542930603,4.878676542930603,19.121296542930605C4.878676542930603,19.121296542930605,3.464466542930603,20.535496542930602,3.464466542930603,20.535496542930602C5.417086542930603,22.488196542930602,8.582906542930603,22.488196542930602,10.535526542930603,20.535496542930602C10.535526542930603,20.535496542930602,9.121316542930604,19.121296542930605,9.121316542930604,19.121296542930605C9.121316542930604,19.121296542930605,9.121316542930604,19.121296542930605,9.121316542930604,19.121296542930605ZM4.878676542930603,19.121296542930605C3.707106542930603,17.949696542930603,3.707106542930603,16.050296542930603,4.878676542930603,14.878696542930603C4.878676542930603,14.878696542930603,3.464466542930603,13.464496542930602,3.464466542930603,13.464496542930602C1.511840542930603,15.417096542930603,1.511840542930603,18.5828965429306,3.464466542930603,20.535496542930602C3.464466542930603,20.535496542930602,4.878676542930603,19.121296542930605,4.878676542930603,19.121296542930605C4.878676542930603,19.121296542930605,4.878676542930603,19.121296542930605,4.878676542930603,19.121296542930605ZM4.878676542930603,14.878696542930603C4.878676542930603,14.878696542930603,8.878676542930602,10.878676542930602,8.878676542930602,10.878676542930602C8.878676542930602,10.878676542930602,7.464466542930603,9.464466542930603,7.464466542930603,9.464466542930603C7.464466542930603,9.464466542930603,3.464466542930603,13.464496542930602,3.464466542930603,13.464496542930602C3.464466542930603,13.464496542930602,4.878676542930603,14.878696542930603,4.878676542930603,14.878696542930603C4.878676542930603,14.878696542930603,4.878676542930603,14.878696542930603,4.878676542930603,14.878696542930603ZM10.222876542930603,18.019796542930603C10.222876542930603,18.019796542930603,9.121316542930604,19.121296542930605,9.121316542930604,19.121296542930605C9.121316542930604,19.121296542930605,10.535526542930603,20.535496542930602,10.535526542930603,20.535496542930602C10.535526542930603,20.535496542930602,11.637096542930603,19.433996542930604,11.637096542930603,19.433996542930604C11.637096542930603,19.433996542930604,10.222876542930603,18.019796542930603,10.222876542930603,18.019796542930603C10.222876542930603,18.019796542930603,10.222876542930603,18.019796542930603,10.222876542930603,18.019796542930603ZM14.878696542930603,4.878676542930603C16.050296542930603,3.707106542930603,17.949696542930603,3.707106542930603,19.121296542930605,4.878676542930603C19.121296542930605,4.878676542930603,20.535496542930602,3.464466542930603,20.535496542930602,3.464466542930603C18.5828965429306,1.511840542930603,15.417096542930603,1.511840542930603,13.464496542930602,3.464466542930603C13.464496542930602,3.464466542930603,14.878696542930603,4.878676542930603,14.878696542930603,4.878676542930603C14.878696542930603,4.878676542930603,14.878696542930603,4.878676542930603,14.878696542930603,4.878676542930603ZM19.121296542930605,4.878676542930603C20.292896542930603,6.050246542930603,20.292896542930603,7.949746542930603,19.121296542930605,9.121316542930604C19.121296542930605,9.121316542930604,20.535496542930602,10.535526542930603,20.535496542930602,10.535526542930603C22.488196542930602,8.582906542930603,22.488196542930602,5.417086542930603,20.535496542930602,3.464466542930603C20.535496542930602,3.464466542930603,19.121296542930605,4.878676542930603,19.121296542930605,4.878676542930603C19.121296542930605,4.878676542930603,19.121296542930605,4.878676542930603,19.121296542930605,4.878676542930603ZM15.121296542930603,13.121296542930603C13.949696542930603,14.292896542930603,12.050296542930603,14.292896542930603,10.878676542930602,13.121296542930603C10.878676542930602,13.121296542930603,9.464466542930603,14.535496542930604,9.464466542930603,14.535496542930604C11.417086542930603,16.488196542930602,14.582896542930603,16.488196542930602,16.535496542930602,14.535496542930604C16.535496542930602,14.535496542930604,15.121296542930603,13.121296542930603,15.121296542930603,13.121296542930603C15.121296542930603,13.121296542930603,15.121296542930603,13.121296542930603,15.121296542930603,13.121296542930603ZM19.121296542930605,9.121316542930604C19.121296542930605,9.121316542930604,15.121296542930603,13.121296542930603,15.121296542930603,13.121296542930603C15.121296542930603,13.121296542930603,16.535496542930602,14.535496542930604,16.535496542930602,14.535496542930604C16.535496542930602,14.535496542930604,20.535496542930602,10.535526542930603,20.535496542930602,10.535526542930603C20.535496542930602,10.535526542930603,19.121296542930605,9.121316542930604,19.121296542930605,9.121316542930604C19.121296542930605,9.121316542930604,19.121296542930605,9.121316542930604,19.121296542930605,9.121316542930604ZM13.779096542930603,5.9782865429306025C13.779096542930603,5.9782865429306025,14.878696542930603,4.878676542930603,14.878696542930603,4.878676542930603C14.878696542930603,4.878676542930603,13.464496542930602,3.464466542930603,13.464496542930602,3.464466542930603C13.464496542930602,3.464466542930603,12.364896542930603,4.564076542930604,12.364896542930603,4.564076542930604C12.364896542930603,4.564076542930604,13.779096542930603,5.9782865429306025,13.779096542930603,5.9782865429306025C13.779096542930603,5.9782865429306025,13.779096542930603,5.9782865429306025,13.779096542930603,5.9782865429306025Z" fill="#111827" fill-opacity="1"/></g></g></svg>