<svg xmlns="http://www.w3.org/2000/svg" xmlns:xlink="http://www.w3.org/1999/xlink" fill="none" version="1.1" width="24" height="24" viewBox="0 0 24 24"><defs><clipPath id="master_svg0_0_27"><rect x="0" y="0" width="24" height="24" rx="0"/></clipPath></defs><g style="mix-blend-mode:passthrough" clip-path="url(#master_svg0_0_27)"><g style="mix-blend-mode:passthrough"><path d="M3.5547047381973265,7.167949999999999C3.0951747381973265,6.8616,2.474301738197327,6.9857700000000005,2.1679497381973265,7.4453C1.8615997381973266,7.9048300000000005,1.9857700381973267,8.5257,2.4452997381973267,8.832049999999999C2.4452997381973267,8.832049999999999,3.5547047381973265,7.167949999999999,3.5547047381973265,7.167949999999999C3.5547047381973265,7.167949999999999,3.5547047381973265,7.167949999999999,3.5547047381973265,7.167949999999999ZM10.890604738197327,13.2604C10.890604738197327,13.2604,10.335904738197327,14.0925,10.335904738197327,14.0925C10.335904738197327,14.0925,10.335904738197327,14.0925,10.335904738197327,14.0925C10.335904738197327,14.0925,10.890604738197327,13.2604,10.890604738197327,13.2604C10.890604738197327,13.2604,10.890604738197327,13.2604,10.890604738197327,13.2604ZM13.109394738197327,13.2604C13.109394738197327,13.2604,12.554694738197327,12.42835,12.554694738197327,12.42835C12.554694738197327,12.42835,13.109394738197327,13.2604,13.109394738197327,13.2604C13.109394738197327,13.2604,13.109394738197327,13.2604,13.109394738197327,13.2604ZM21.554694738197327,8.832049999999999C22.014194738197325,8.5257,22.138394738197327,7.9048300000000005,21.832094738197327,7.4453C21.525694738197327,6.9857700000000005,20.904794738197328,6.8616,20.445294738197326,7.167949999999999C20.445294738197326,7.167949999999999,21.554694738197327,8.832049999999999,21.554694738197327,8.832049999999999C21.554694738197327,8.832049999999999,21.554694738197327,8.832049999999999,21.554694738197327,8.832049999999999ZM5.000004738197326,6C5.000004738197326,6,18.999994738197326,6,18.999994738197326,6C18.999994738197326,6,18.999994738197326,4,18.999994738197326,4C18.999994738197326,4,5.000004738197326,4,5.000004738197326,4C5.000004738197326,4,5.000004738197326,6,5.000004738197326,6C5.000004738197326,6,5.000004738197326,6,5.000004738197326,6ZM19.999994738197326,7C19.999994738197326,7,19.999994738197326,17,19.999994738197326,17C19.999994738197326,17,21.999994738197326,17,21.999994738197326,17C21.999994738197326,17,21.999994738197326,7,21.999994738197326,7C21.999994738197326,7,19.999994738197326,7,19.999994738197326,7C19.999994738197326,7,19.999994738197326,7,19.999994738197326,7ZM18.999994738197326,18C18.999994738197326,18,5.000004738197326,18,5.000004738197326,18C5.000004738197326,18,5.000004738197326,20,5.000004738197326,20C5.000004738197326,20,18.999994738197326,20,18.999994738197326,20C18.999994738197326,20,18.999994738197326,18,18.999994738197326,18C18.999994738197326,18,18.999994738197326,18,18.999994738197326,18ZM4.000004738197326,17C4.000004738197326,17,4.000004738197326,7,4.000004738197326,7C4.000004738197326,7,2.0000000051973266,7,2.0000000051973266,7C2.0000000051973266,7,2.0000000051973266,17,2.0000000051973266,17C2.0000000051973266,17,4.000004738197326,17,4.000004738197326,17C4.000004738197326,17,4.000004738197326,17,4.000004738197326,17ZM5.000004738197326,18C4.447724738197326,18,4.000004738197326,17.552300000000002,4.000004738197326,17C4.000004738197326,17,2.0000000051973266,17,2.0000000051973266,17C2.0000000051973266,18.6569,3.343144738197327,20,5.000004738197326,20C5.000004738197326,20,5.000004738197326,18,5.000004738197326,18C5.000004738197326,18,5.000004738197326,18,5.000004738197326,18ZM19.999994738197326,17C19.999994738197326,17.552300000000002,19.552294738197325,18,18.999994738197326,18C18.999994738197326,18,18.999994738197326,20,18.999994738197326,20C20.656894738197327,20,21.999994738197326,18.6569,21.999994738197326,17C21.999994738197326,17,19.999994738197326,17,19.999994738197326,17C19.999994738197326,17,19.999994738197326,17,19.999994738197326,17ZM18.999994738197326,6C19.552294738197325,6,19.999994738197326,6.44772,19.999994738197326,7C19.999994738197326,7,21.999994738197326,7,21.999994738197326,7C21.999994738197326,5.34315,20.656894738197327,4,18.999994738197326,4C18.999994738197326,4,18.999994738197326,6,18.999994738197326,6C18.999994738197326,6,18.999994738197326,6,18.999994738197326,6ZM5.000004738197326,4C3.343144738197327,4,2.0000000051973266,5.34315,2.0000000051973266,7C2.0000000051973266,7,4.000004738197326,7,4.000004738197326,7C4.000004738197326,6.44772,4.447724738197326,6,5.000004738197326,6C5.000004738197326,6,5.000004738197326,4,5.000004738197326,4C5.000004738197326,4,5.000004738197326,4,5.000004738197326,4ZM2.4452997381973267,8.832049999999999C2.4452997381973267,8.832049999999999,10.335904738197327,14.0925,10.335904738197327,14.0925C10.335904738197327,14.0925,11.445304738197327,12.42835,11.445304738197327,12.42835C11.445304738197327,12.42835,3.5547047381973265,7.167949999999999,3.5547047381973265,7.167949999999999C3.5547047381973265,7.167949999999999,2.4452997381973267,8.832049999999999,2.4452997381973267,8.832049999999999C2.4452997381973267,8.832049999999999,2.4452997381973267,8.832049999999999,2.4452997381973267,8.832049999999999ZM13.664094738197326,14.0925C13.664094738197326,14.0925,21.554694738197327,8.832049999999999,21.554694738197327,8.832049999999999C21.554694738197327,8.832049999999999,20.445294738197326,7.167949999999999,20.445294738197326,7.167949999999999C20.445294738197326,7.167949999999999,12.554694738197327,12.42835,12.554694738197327,12.42835C12.554694738197327,12.42835,13.664094738197326,14.0925,13.664094738197326,14.0925C13.664094738197326,14.0925,13.664094738197326,14.0925,13.664094738197326,14.0925ZM10.335904738197327,14.0925C11.343604738197326,14.7642,12.656394738197326,14.7642,13.664094738197326,14.0925C13.664094738197326,14.0925,12.554694738197327,12.42835,12.554694738197327,12.42835C12.218794738197326,12.65228,11.781204738197326,12.65228,11.445304738197327,12.42835C11.445304738197327,12.42835,10.335904738197327,14.0925,10.335904738197327,14.0925C10.335904738197327,14.0925,10.335904738197327,14.0925,10.335904738197327,14.0925Z" fill="#111827" fill-opacity="1"/></g></g></svg>