<svg xmlns="http://www.w3.org/2000/svg" xmlns:xlink="http://www.w3.org/1999/xlink" fill="none" version="1.1" width="24" height="24" viewBox="0 0 24 24"><defs><clipPath id="master_svg0_0_11213"><rect x="0" y="0" width="24" height="24" rx="0"/></clipPath></defs><g style="mix-blend-mode:passthrough" clip-path="url(#master_svg0_0_11213)"><g style="mix-blend-mode:passthrough"><g style="mix-blend-mode:passthrough"><path d="M21,11.999999972468375C21,12.352899972468375,20.814,12.679699972468375,20.5105,12.859899972468375C20.5105,12.859899972468375,4.51054,22.359899972468376,4.51054,22.359899972468376C4.2014700000000005,22.54339997246837,3.81768,22.546899972468374,3.505297,22.369099972468376C3.192915,22.191199972468375,3,21.859399972468374,3,21.499999972468373C3,21.499999972468373,3,2.499999972468375,3,2.499999972468375C3,2.140551972468375,3.192915,1.808757972468375,3.505297,1.630937972468375C3.81768,1.453117772468375,4.2014700000000005,1.456633172468375,4.51054,1.640144972468375C4.51054,1.640144972468375,20.5105,11.140149972468375,20.5105,11.140149972468375C20.814,11.320319972468376,21,11.647099972468375,21,11.999999972468375Z" fill-rule="evenodd" fill="#000000" fill-opacity="1"/></g></g></g></svg>