<svg xmlns="http://www.w3.org/2000/svg" xmlns:xlink="http://www.w3.org/1999/xlink" fill="none" version="1.1" width="24" height="24" viewBox="0 0 24 24"><defs><clipPath id="master_svg0_0_344"><rect x="0" y="0" width="24" height="24" rx="0"/></clipPath></defs><g style="mix-blend-mode:passthrough" clip-path="url(#master_svg0_0_344)"><g style="mix-blend-mode:passthrough"><path d="M11.5547,9.03647C11.5547,9.03647,12.1094,8.204419999999999,12.1094,8.204419999999999C12.1094,8.204419999999999,11.5547,9.03647,11.5547,9.03647C11.5547,9.03647,11.5547,9.03647,11.5547,9.03647ZM14.7519,11.16795C14.7519,11.16795,15.3066,10.3359,15.3066,10.3359C15.3066,10.3359,15.3066,10.3359,15.3066,10.3359C15.3066,10.3359,14.7519,11.16795,14.7519,11.16795C14.7519,11.16795,14.7519,11.16795,14.7519,11.16795ZM14.7519,12.8321C14.7519,12.8321,14.1972,12,14.1972,12C14.1972,12,14.1972,12,14.1972,12C14.1972,12,14.7519,12.8321,14.7519,12.8321C14.7519,12.8321,14.7519,12.8321,14.7519,12.8321ZM11.5547,14.9635C11.5547,14.9635,11,14.1315,11,14.1315C11,14.1315,11,14.1315,11,14.1315C11,14.1315,11.5547,14.9635,11.5547,14.9635C11.5547,14.9635,11.5547,14.9635,11.5547,14.9635ZM11,9.86852C11,9.86852,14.1972,12,14.1972,12C14.1972,12,15.3066,10.3359,15.3066,10.3359C15.3066,10.3359,12.1094,8.204419999999999,12.1094,8.204419999999999C12.1094,8.204419999999999,11,9.86852,11,9.86852C11,9.86852,11,9.86852,11,9.86852ZM14.1972,12C14.1972,12,11,14.1315,11,14.1315C11,14.1315,12.1094,15.7956,12.1094,15.7956C12.1094,15.7956,15.3066,13.6641,15.3066,13.6641C15.3066,13.6641,14.1972,12,14.1972,12C14.1972,12,14.1972,12,14.1972,12ZM11,14.1315C11,14.1315,11,9.86852,11,9.86852C11,9.86852,9,9.86852,9,9.86852C9,9.86852,9,14.1315,9,14.1315C9,14.1315,11,14.1315,11,14.1315C11,14.1315,11,14.1315,11,14.1315ZM11,14.1315C11,14.1315,11,14.1315,11,14.1315C11,14.1315,9,14.1315,9,14.1315C9,15.7289,10.78029,16.6817,12.1094,15.7956C12.1094,15.7956,11,14.1315,11,14.1315C11,14.1315,11,14.1315,11,14.1315ZM14.1972,12C14.1972,12,14.1972,12,14.1972,12C14.1972,12,15.3066,13.6641,15.3066,13.6641C16.4941,12.8725,16.4941,11.12754,15.3066,10.3359C15.3066,10.3359,14.1972,12,14.1972,12C14.1972,12,14.1972,12,14.1972,12ZM12.1094,8.204419999999999C10.78029,7.31834,9,8.27113,9,9.86852C9,9.86852,11,9.86852,11,9.86852C11,9.86852,11,9.86852,11,9.86852C11,9.86852,12.1094,8.204419999999999,12.1094,8.204419999999999C12.1094,8.204419999999999,12.1094,8.204419999999999,12.1094,8.204419999999999ZM20,12C20,16.418300000000002,16.418300000000002,20,12,20C12,20,12,22,12,22C17.5228,22,22,17.5228,22,12C22,12,20,12,20,12C20,12,20,12,20,12ZM12,20C7.58172,20,4,16.418300000000002,4,12C4,12,2,12,2,12C2,17.5228,6.47715,22,12,22C12,22,12,20,12,20C12,20,12,20,12,20ZM4,12C4,7.58172,7.58172,4,12,4C12,4,12,2,12,2C6.47715,2,2,6.47715,2,12C2,12,4,12,4,12C4,12,4,12,4,12ZM12,4C16.418300000000002,4,20,7.58172,20,12C20,12,22,12,22,12C22,6.47715,17.5228,2,12,2C12,2,12,4,12,4C12,4,12,4,12,4Z" fill="#111827" fill-opacity="1"/></g></g></svg>