<svg xmlns="http://www.w3.org/2000/svg" xmlns:xlink="http://www.w3.org/1999/xlink" fill="none" version="1.1" width="64" height="64" viewBox="0 0 64 64"><defs><filter id="master_svg0_0_232" filterUnits="objectBoundingBox" color-interpolation-filters="sRGB" x="-20" y="-16" width="64" height="64"><feFlood flood-opacity="0" result="BackgroundImageFix"/><feColorMatrix in="SourceAlpha" type="matrix" values="0 0 0 0 0 0 0 0 0 0 0 0 0 0 0 0 0 0 127 0"/><feOffset dy="4" dx="0"/><feGaussianBlur stdDeviation="5"/><feColorMatrix type="matrix" values="0 0 0 0 0 0 0 0 0 0 0 0 0 0 0 0 0 0 0.3019607961177826 0"/><feBlend mode="normal" in2="BackgroundImageFix" result="effect1_dropShadow"/><feBlend mode="normal" in="SourceGraphic" in2="effect1_dropShadow" result="shape"/></filter><clipPath id="master_svg1_0_232"><rect x="20" y="16" width="24" height="24" rx="0"/></clipPath></defs><g style="mix-blend-mode:passthrough" filter="url(#master_svg0_0_232)"><g clip-path="url(#master_svg1_0_232)"><g style="mix-blend-mode:passthrough"><path d="M40.2929,37.7071C40.6834,38.0976,41.3166,38.0976,41.7071,37.7071C42.0976,37.3166,42.0976,36.6834,41.7071,36.2929C41.7071,36.2929,40.2929,37.7071,40.2929,37.7071C40.2929,37.7071,40.2929,37.7071,40.2929,37.7071ZM35.7071,30.2929C35.3166,29.9024,34.6834,29.9024,34.2929,30.2929C33.9024,30.6834,33.9024,31.3166,34.2929,31.7071C34.2929,31.7071,35.7071,30.2929,35.7071,30.2929C35.7071,30.2929,35.7071,30.2929,35.7071,30.2929ZM36,26C36,29.3137,33.3137,32,30,32C30,32,30,34,30,34C34.4183,34,38,30.418300000000002,38,26C38,26,36,26,36,26C36,26,36,26,36,26ZM30,32C26.68629,32,24,29.3137,24,26C24,26,22,26,22,26C22,30.418300000000002,25.58172,34,30,34C30,34,30,32,30,32C30,32,30,32,30,32ZM24,26C24,22.68629,26.68629,20,30,20C30,20,30,18,30,18C25.58172,18,22,21.58172,22,26C22,26,24,26,24,26C24,26,24,26,24,26ZM30,20C33.3137,20,36,22.68629,36,26C36,26,38,26,38,26C38,21.58172,34.4183,18,30,18C30,18,30,20,30,20C30,20,30,20,30,20ZM41.7071,36.2929C41.7071,36.2929,35.7071,30.2929,35.7071,30.2929C35.7071,30.2929,34.2929,31.7071,34.2929,31.7071C34.2929,31.7071,40.2929,37.7071,40.2929,37.7071C40.2929,37.7071,41.7071,36.2929,41.7071,36.2929C41.7071,36.2929,41.7071,36.2929,41.7071,36.2929Z" fill="#111827" fill-opacity="1"/></g></g></g></svg>