<svg xmlns="http://www.w3.org/2000/svg" xmlns:xlink="http://www.w3.org/1999/xlink" fill="none" version="1.1" width="24" height="24" viewBox="0 0 24 24"><defs><clipPath id="master_svg0_0_332"><rect x="0" y="0" width="24" height="24" rx="0"/></clipPath></defs><g style="mix-blend-mode:passthrough" clip-path="url(#master_svg0_0_332)"><g style="mix-blend-mode:passthrough"><path d="M18,2.9999967270278933C18,2.9999967270278933,19,2.9999967270278933,19,2.9999967270278933C19,2.583270727027893,18.7416,2.210227727027893,18.3514,2.063781027027893C17.9613,1.917340027027893,17.5212,2.028190027027893,17.247,2.341990727027893C17.247,2.341990727027893,18,2.9999967270278933,18,2.9999967270278933C18,2.9999967270278933,18,2.9999967270278933,18,2.9999967270278933ZM8.832080000000001,13.999956727027893C8.832080000000001,13.999956727027893,8.832080000000001,14.999956727027893,8.832080000000001,14.999956727027893C8.832080000000001,14.999956727027893,8.832080000000001,14.999956727027893,8.832080000000001,14.999956727027893C8.832080000000001,14.999956727027893,8.832080000000001,13.999956727027893,8.832080000000001,13.999956727027893C8.832080000000001,13.999956727027893,8.832080000000001,13.999956727027893,8.832080000000001,13.999956727027893ZM18,16.999956727027893C18,16.999956727027893,17.247,17.657956727027894,17.247,17.657956727027894C17.5212,17.971756727027895,17.9613,18.082656727027892,18.3514,17.936156727027893C18.7416,17.789756727027893,19,17.416656727027892,19,16.999956727027893C19,16.999956727027893,18,16.999956727027893,18,16.999956727027893C18,16.999956727027893,18,16.999956727027893,18,16.999956727027893ZM6.99998,13.999956727027893C6.99998,13.999956727027893,6.99997,14.999956727027893,6.99997,14.999956727027893C6.99997,14.999956727027893,6.99998,13.999956727027893,6.99998,13.999956727027893C6.99998,13.999956727027893,6.99998,13.999956727027893,6.99998,13.999956727027893ZM12,5.882176727027893C12,5.329896727027894,11.55229,4.882176727027893,11,4.882176727027893C10.44772,4.882176727027893,10,5.329896727027894,10,5.882176727027893C10,5.882176727027893,12,5.882176727027893,12,5.882176727027893C12,5.882176727027893,12,5.882176727027893,12,5.882176727027893ZM7.58288,19.832056727027894C7.58288,19.832056727027894,6.63872,20.161556727027893,6.63872,20.161556727027893C6.63872,20.161556727027893,6.64114,20.16835672702789,6.64114,20.16835672702789C6.64114,20.16835672702789,7.58288,19.832056727027894,7.58288,19.832056727027894C7.58288,19.832056727027894,7.58288,19.832056727027894,7.58288,19.832056727027894ZM18,11.999956727027893C17.447699999999998,11.999956727027893,17,12.447756727027894,17,12.999956727027893C17,13.552256727027894,17.447699999999998,13.999956727027893,18,13.999956727027893C18,13.999956727027893,18,11.999956727027893,18,11.999956727027893C18,11.999956727027893,18,11.999956727027893,18,11.999956727027893ZM18,5.999996727027893C17.447699999999998,5.999996727027893,17,6.447716727027893,17,6.999996727027893C17,7.552276727027893,17.447699999999998,7.999996727027893,18,7.999996727027893C18,7.999996727027893,18,5.999996727027893,18,5.999996727027893C18,5.999996727027893,18,5.999996727027893,18,5.999996727027893ZM5.43647,13.682856727027893C5.43647,13.682856727027893,5.8276699999999995,12.762556727027894,5.8276699999999995,12.762556727027894C5.8276699999999995,12.762556727027894,5.43647,13.682856727027893,5.43647,13.682856727027893C5.43647,13.682856727027893,5.43647,13.682856727027893,5.43647,13.682856727027893ZM8.832080000000001,4.999996727027893C8.832080000000001,4.999996727027893,6.99999,4.999996727027893,6.99999,4.999996727027893C6.99999,4.999996727027893,6.99999,6.999996727027893,6.99999,6.999996727027893C6.99999,6.999996727027893,8.832080000000001,6.999996727027893,8.832080000000001,6.999996727027893C8.832080000000001,6.999996727027893,8.832080000000001,4.999996727027893,8.832080000000001,4.999996727027893C8.832080000000001,4.999996727027893,8.832080000000001,4.999996727027893,8.832080000000001,4.999996727027893ZM17.247,2.341990727027893C16.634,3.043476727027893,15.5484,3.716616727027893,14.0587,4.2136067270278925C12.5846,4.705366727027894,10.78635,4.999996727027893,8.832080000000001,4.999996727027893C8.832080000000001,4.999996727027893,8.832080000000001,6.999996727027893,8.832080000000001,6.999996727027893C10.97845,6.999996727027893,12.9927,6.677576727027893,14.6916,6.110816727027893C16.3748,5.5492867270278925,17.8229,4.722426727027893,18.753,3.6580067270278933C18.753,3.6580067270278933,17.247,2.341990727027893,17.247,2.341990727027893C17.247,2.341990727027893,17.247,2.341990727027893,17.247,2.341990727027893ZM8.832080000000001,14.999956727027893C10.78635,14.999956727027893,12.5846,15.294556727027894,14.0587,15.786356727027893C15.5484,16.283356727027893,16.634,16.95645672702789,17.247,17.657956727027894C17.247,17.657956727027894,18.753,16.341956727027892,18.753,16.341956727027892C17.8229,15.277556727027893,16.3748,14.450656727027893,14.6916,13.889156727027894C12.9927,13.322356727027893,10.97845,12.999956727027893,8.832080000000001,12.999956727027893C8.832080000000001,12.999956727027893,8.832080000000001,14.999956727027893,8.832080000000001,14.999956727027893C8.832080000000001,14.999956727027893,8.832080000000001,14.999956727027893,8.832080000000001,14.999956727027893ZM6.99997,14.999956727027893C6.99997,14.999956727027893,8.832080000000001,14.999956727027893,8.832080000000001,14.999956727027893C8.832080000000001,14.999956727027893,8.83209,12.999956727027893,8.83209,12.999956727027893C8.83209,12.999956727027893,6.99998,12.999956727027893,6.99998,12.999956727027893C6.99998,12.999956727027893,6.99997,14.999956727027893,6.99997,14.999956727027893C6.99997,14.999956727027893,6.99997,14.999956727027893,6.99997,14.999956727027893ZM19,16.999956727027893C19,16.999956727027893,19,2.9999967270278933,19,2.9999967270278933C19,2.9999967270278933,17,2.9999967270278933,17,2.9999967270278933C17,2.9999967270278933,17,16.999956727027893,17,16.999956727027893C17,16.999956727027893,19,16.999956727027893,19,16.999956727027893C19,16.999956727027893,19,16.999956727027893,19,16.999956727027893ZM4,9.999996727027893C4,8.343136727027893,5.34314,6.999996727027893,6.99999,6.999996727027893C6.99999,6.999996727027893,6.99999,4.999996727027893,6.99999,4.999996727027893C4.23857,4.999996727027893,2,7.238576727027893,2,9.999996727027893C2,9.999996727027893,4,9.999996727027893,4,9.999996727027893C4,9.999996727027893,4,9.999996727027893,4,9.999996727027893ZM10,5.882176727027893C10,5.882176727027893,10,19.240156727027895,10,19.240156727027895C10,19.240156727027895,12,19.240156727027895,12,19.240156727027895C12,19.240156727027895,12,5.882176727027893,12,5.882176727027893C12,5.882176727027893,10,5.882176727027893,10,5.882176727027893C10,5.882176727027893,10,5.882176727027893,10,5.882176727027893ZM9.240179999999999,19.999956727027893C8.91907,19.999956727027893,8.632629999999999,19.798056727027895,8.524619999999999,19.495656727027892C8.524619999999999,19.495656727027892,6.64114,20.16835672702789,6.64114,20.16835672702789C7.03342,21.266756727027893,8.07384,21.999956727027893,9.240179999999999,21.999956727027893C9.240179999999999,21.999956727027893,9.240179999999999,19.999956727027893,9.240179999999999,19.999956727027893C9.240179999999999,19.999956727027893,9.240179999999999,19.999956727027893,9.240179999999999,19.999956727027893ZM10,19.240156727027895C10,19.659756727027894,9.65982,19.999956727027893,9.240179999999999,19.999956727027893C9.240179999999999,19.999956727027893,9.240179999999999,21.999956727027893,9.240179999999999,21.999956727027893C10.76439,21.999956727027893,12,20.76435672702789,12,19.240156727027895C12,19.240156727027895,10,19.240156727027895,10,19.240156727027895C10,19.240156727027895,10,19.240156727027895,10,19.240156727027895ZM20,9.999996727027893C20,11.104566727027892,19.1046,11.999956727027893,18,11.999956727027893C18,11.999956727027893,18,13.999956727027893,18,13.999956727027893C20.2091,13.999956727027893,22,12.209156727027892,22,9.999996727027893C22,9.999996727027893,20,9.999996727027893,20,9.999996727027893C20,9.999996727027893,20,9.999996727027893,20,9.999996727027893ZM18,7.999996727027893C19.1046,7.999996727027893,20,8.895426727027893,20,9.999996727027893C20,9.999996727027893,22,9.999996727027893,22,9.999996727027893C22,7.790856727027893,20.2091,5.999996727027893,18,5.999996727027893C18,5.999996727027893,18,7.999996727027893,18,7.999996727027893C18,7.999996727027893,18,7.999996727027893,18,7.999996727027893ZM8.52702,19.502456727027894C8.52702,19.502456727027894,6.38061,13.353256727027894,6.38061,13.353256727027894C6.38061,13.353256727027894,4.49234,14.012356727027893,4.49234,14.012356727027893C4.49234,14.012356727027893,6.63875,20.161556727027893,6.63875,20.161556727027893C6.63875,20.161556727027893,8.52702,19.502456727027894,8.52702,19.502456727027894C8.52702,19.502456727027894,8.52702,19.502456727027894,8.52702,19.502456727027894ZM2,9.999996727027893C2,12.069456727027893,3.25706,13.843056727027893,5.04528,14.603156727027892C5.04528,14.603156727027892,5.8276699999999995,12.762556727027894,5.8276699999999995,12.762556727027894C4.75153,12.305156727027892,4,11.239176727027893,4,9.999996727027893C4,9.999996727027893,2,9.999996727027893,2,9.999996727027893C2,9.999996727027893,2,9.999996727027893,2,9.999996727027893ZM5.04528,14.603156727027892C5.64703,14.858956727027893,6.30832,14.999956727027893,6.99997,14.999956727027893C6.99997,14.999956727027893,6.99998,12.999956727027893,6.99998,12.999956727027893C6.58204,12.999956727027893,6.1865,12.915056727027894,5.8276699999999995,12.762556727027894C5.8276699999999995,12.762556727027894,5.04528,14.603156727027892,5.04528,14.603156727027892C5.04528,14.603156727027892,5.04528,14.603156727027892,5.04528,14.603156727027892Z" fill="#111827" fill-opacity="1"/></g></g></svg>