<svg xmlns="http://www.w3.org/2000/svg" xmlns:xlink="http://www.w3.org/1999/xlink" fill="none" version="1.1" width="24" height="24" viewBox="0 0 24 24"><g style="mix-blend-mode:passthrough"><g style="mix-blend-mode:passthrough"><path d="M11.996771151351929,1.50000331842C12.377471151351928,1.499025147,12.725771151351928,1.714367,12.895071151351928,2.0554360000000003C12.895071151351928,2.0554360000000003,15.758471151351928,7.82487,15.758471151351928,7.82487C15.758471151351928,7.82487,22.14427115135193,8.75601,22.14427115135193,8.75601C22.520471151351927,8.81086,22.832971151351927,9.07424,22.95077115135193,9.435649999999999C23.06857115135193,9.79707,22.971271151351928,10.19402,22.69967115135193,10.46C22.69967115135193,10.46,18.05487115135193,15.0089,18.05487115135193,15.0089C18.05487115135193,15.0089,19.15777115135193,21.3281,19.15777115135193,21.3281C19.22357115135193,21.7046,19.068871151351928,22.0856,18.759371151351928,22.3098C18.44987115135193,22.534,18.03967115135193,22.5622,17.70237115135193,22.3825C17.70237115135193,22.3825,11.999371151351928,19.3428,11.999371151351928,19.3428C11.999371151351928,19.3428,6.297631151351928,22.3824,6.297631151351928,22.3824C5.960161151351929,22.5623,5.5496211513519285,22.534,5.240051151351929,22.3095C4.930471151351929,22.0849,4.776081151351929,21.7035,4.842311151351929,21.3268C4.842311151351929,21.3268,5.953211151351929,15.0089,5.953211151351929,15.0089C5.953211151351929,15.0089,1.3009321513519287,10.46061,1.3009321513519287,10.46061C1.0289039513519287,10.19466,0.9313379513519287,9.7974,1.0492176513519287,9.435690000000001C1.1670971513519288,9.07399,1.4800021513519286,8.81049,1.8564941513519289,8.7559C1.8564941513519289,8.7559,8.27698115135193,7.82489,8.27698115135193,7.82489C8.27698115135193,7.82489,11.101271151351929,2.060044,11.101271151351929,2.060044C11.26877115135193,1.71811,11.615971151351928,1.50098149,11.996771151351929,1.50000331842C11.996771151351929,1.50000331842,11.996771151351929,1.50000331842,11.996771151351929,1.50000331842ZM12.00507115135193,4.7611C12.00507115135193,4.7611,9.840821151351928,9.17876,9.840821151351928,9.17876C9.69552115135193,9.47534,9.41315115135193,9.68106,9.086301151351929,9.72845C9.086301151351929,9.72845,4.145781151351929,10.44486,4.145781151351929,10.44486C4.145781151351929,10.44486,7.728521151351929,13.9475,7.728521151351929,13.9475C7.9645511513519285,14.1783,8.071501151351928,14.5106,8.014341151351928,14.8357C8.014341151351928,14.8357,7.167431151351929,19.6523,7.167431151351929,19.6523C7.167431151351929,19.6523,11.528871151351929,17.327199999999998,11.528871151351929,17.327199999999998C11.82287115135193,17.1704,12.17567115135193,17.1704,12.469671151351928,17.3271C12.469671151351928,17.3271,16.83537115135193,19.654,16.83537115135193,19.654C16.83537115135193,19.654,15.994171151351928,14.8345,15.994171151351928,14.8345C15.937571151351928,14.5101,16.04427115135193,14.1785,16.27957115135193,13.9481C16.27957115135193,13.9481,19.85787115135193,10.44377,19.85787115135193,10.44377C19.85787115135193,10.44377,14.951371151351928,9.72834,14.951371151351928,9.72834C14.626671151351928,9.68099,14.34577115135193,9.477319999999999,14.199871151351928,9.18336C14.199871151351928,9.18336,12.00507115135193,4.7611,12.00507115135193,4.7611C12.00507115135193,4.7611,12.00507115135193,4.7611,12.00507115135193,4.7611Z" fill-rule="evenodd" fill="#000000" fill-opacity="0.8500000238418579"/></g></g></svg>