<svg xmlns="http://www.w3.org/2000/svg" xmlns:xlink="http://www.w3.org/1999/xlink" fill="none" version="1.1" width="24" height="24" viewBox="0 0 24 24"><defs><clipPath id="master_svg0_0_372"><rect x="0" y="24" width="24" height="24" rx="0"/></clipPath></defs><g style="mix-blend-mode:passthrough" transform="matrix(1,0,0,-1,0,48)" clip-path="url(#master_svg0_0_372)"><g style="mix-blend-mode:passthrough" transform="matrix(1,0,0,-1,0,92)"><path d="M17.052799999999998,63.894400000000005C17.052799999999998,63.894400000000005,16.1584,63.447199999999995,16.1584,63.447199999999995C16.1584,63.447199999999995,17.052799999999998,63.894400000000005,17.052799999999998,63.894400000000005C17.052799999999998,63.894400000000005,17.052799999999998,63.894400000000005,17.052799999999998,63.894400000000005ZM20.5528,56.8944C20.5528,56.8944,21.4472,57.3416,21.4472,57.3416C21.4472,57.3416,21.4472,57.3416,21.4472,57.3416C21.4472,57.3416,20.5528,56.8944,20.5528,56.8944C20.5528,56.8944,20.5528,56.8944,20.5528,56.8944ZM10.76114,64.94030000000001C10.76114,64.94030000000001,11.00368,63.9701,11.00368,63.9701C11.00368,63.9701,11.00368,63.9701,11.00368,63.9701C11.00368,63.9701,10.76114,64.94030000000001,10.76114,64.94030000000001C10.76114,64.94030000000001,10.76114,64.94030000000001,10.76114,64.94030000000001ZM7,55C7,55,6.16795,54.4453,6.16795,54.4453C6.05844,54.60957,6,54.80258,6,55C6,55,7,55,7,55C7,55,7,55,7,55ZM12,53C11.44771,53,11,53.447720000000004,11,54C11,54.552279999999996,11.44771,55,12,55C12,55,12,53,12,53C12,53,12,53,12,53ZM7.5,55C8.05228,55,8.5,54.552279999999996,8.5,54C8.5,53.447720000000004,8.05228,53,7.5,53C7.5,53,7.5,55,7.5,55C7.5,55,7.5,55,7.5,55ZM10.39234,49.91149C10.39234,49.91149,11.22439,50.46619,11.22439,50.46619C11.22439,50.46619,10.39234,49.91149,10.39234,49.91149C10.39234,49.91149,10.39234,49.91149,10.39234,49.91149ZM18.7639,53C18.7639,53,14,53,14,53C14,53,14,55,14,55C14,55,18.7639,55,18.7639,55C18.7639,55,18.7639,53,18.7639,53C18.7639,53,18.7639,53,18.7639,53ZM17.947200000000002,64.3416C17.947200000000002,64.3416,21.4472,57.3416,21.4472,57.3416C21.4472,57.3416,19.6584,56.4472,19.6584,56.4472C19.6584,56.4472,16.1584,63.447199999999995,16.1584,63.447199999999995C16.1584,63.447199999999995,17.947200000000002,64.3416,17.947200000000002,64.3416C17.947200000000002,64.3416,17.947200000000002,64.3416,17.947200000000002,64.3416ZM6.75746,64.9701C6.75746,64.9701,10.5186,65.9104,10.5186,65.9104C10.5186,65.9104,11.00368,63.9701,11.00368,63.9701C11.00368,63.9701,7.24254,63.0299,7.24254,63.0299C7.24254,63.0299,6.75746,64.9701,6.75746,64.9701C6.75746,64.9701,6.75746,64.9701,6.75746,64.9701ZM11.24621,66C11.24621,66,15.2639,66,15.2639,66C15.2639,66,15.2639,64,15.2639,64C15.2639,64,11.24621,64,11.24621,64C11.24621,64,11.24621,66,11.24621,66C11.24621,66,11.24621,66,11.24621,66ZM15,54C15,54,15,49,15,49C15,49,13,49,13,49C13,49,13,54,13,54C13,54,15,54,15,54C15,54,15,54,15,54ZM12,46C12,46,11.90453,46,11.90453,46C11.90453,46,11.90453,48,11.90453,48C11.90453,48,12,48,12,48C12,48,12,46,12,46C12,46,12,46,12,46ZM6,55C6,55,6,64,6,64C6,64,8,64,8,64C8,64,8,55,8,55C8,55,6,55,6,55C6,55,6,55,6,55ZM10.5186,65.9104C10.75657,65.9699,11.00093,66,11.24621,66C11.24621,66,11.24621,64,11.24621,64C11.16445,64,11.083,63.989999999999995,11.00368,63.9701C11.00368,63.9701,10.5186,65.9104,10.5186,65.9104C10.5186,65.9104,10.5186,65.9104,10.5186,65.9104ZM16.1584,63.447199999999995C15.989,63.786,15.6427,64,15.2639,64C15.2639,64,15.2639,66,15.2639,66C16.400199999999998,66,17.439,65.358,17.947200000000002,64.3416C17.947200000000002,64.3416,16.1584,63.447199999999995,16.1584,63.447199999999995C16.1584,63.447199999999995,16.1584,63.447199999999995,16.1584,63.447199999999995ZM15,49C15,47.34315,13.6569,46,12,46C12,46,12,48,12,48C12.5523,48,13,48.44772,13,49C13,49,15,49,15,49C15,49,15,49,15,49ZM18.7639,55C19.5073,55,19.9908,55.78231,19.6584,56.4472C19.6584,56.4472,21.4472,57.3416,21.4472,57.3416C22.4446,55.346940000000004,20.9941,53,18.7639,53C18.7639,53,18.7639,55,18.7639,55C18.7639,55,18.7639,55,18.7639,55ZM14,53C14,53,12,53,12,53C12,53,12,55,12,55C12,55,14,55,14,55C14,55,14,53,14,53C14,53,14,53,14,53ZM7.5,53C7.5,53,5,53,5,53C5,53,5,55,5,55C5,55,7.5,55,7.5,55C7.5,55,7.5,53,7.5,53C7.5,53,7.5,53,7.5,53ZM2,56C2,56,2,62,2,62C2,62,4,62,4,62C4,62,4,56,4,56C4,56,2,56,2,56C2,56,2,56,2,56ZM5,65C5,65,7,65,7,65C7,65,7,63,7,63C7,63,5,63,5,63C5,63,5,65,5,65C5,65,5,65,5,65ZM2,62C2,63.6569,3.34315,65,5,65C5,65,5,63,5,63C4.44771,63,4,62.5523,4,62C4,62,2,62,2,62C2,62,2,62,2,62ZM5,53C3.34315,53,2,54.34315,2,56C2,56,4,56,4,56C4,55.44771,4.44772,55,5,55C5,55,5,53,5,53C5,53,5,53,5,53ZM9.56029,49.356790000000004C9.56029,49.356790000000004,6.16795,54.4453,6.16795,54.4453C6.16795,54.4453,7.83205,55.5547,7.83205,55.5547C7.83205,55.5547,11.22439,50.46619,11.22439,50.46619C11.22439,50.46619,9.56029,49.356790000000004,9.56029,49.356790000000004C9.56029,49.356790000000004,9.56029,49.356790000000004,9.56029,49.356790000000004ZM10,47.90453C10,48.42141,9.847000000000001,48.92672,9.56029,49.356790000000004C9.56029,49.356790000000004,11.22439,50.46619,11.22439,50.46619C11.73013,49.70758,12,48.81626,12,47.90453C12,47.90453,10,47.90453,10,47.90453C10,47.90453,10,47.90453,10,47.90453ZM11.90453,46C10.85268,46,10,46.852686,10,47.90453C10,47.90453,12,47.90453,12,47.90453C12,47.95725,11.95726,48,11.90453,48C11.90453,48,11.90453,46,11.90453,46C11.90453,46,11.90453,46,11.90453,46Z" fill="#111827" fill-opacity="1"/></g></g></svg>