<svg xmlns="http://www.w3.org/2000/svg" xmlns:xlink="http://www.w3.org/1999/xlink" fill="none" version="1.1" width="24" height="24" viewBox="0 0 24 24"><defs><clipPath id="master_svg0_0_228"><rect x="0" y="0" width="24" height="24" rx="0"/></clipPath></defs><g style="mix-blend-mode:passthrough" clip-path="url(#master_svg0_0_228)"><g style="mix-blend-mode:passthrough"><path d="M19.9975,7.07125C20.0368,6.52037,19.6221,6.04189,19.0712,6.00254C18.520400000000002,5.96319,18.0419,6.37787,18.002499999999998,6.92875C18.002499999999998,6.92875,19.9975,7.07125,19.9975,7.07125C19.9975,7.07125,19.9975,7.07125,19.9975,7.07125ZM18.1327,19.1425C18.1327,19.1425,17.135199999999998,19.0712,17.135199999999998,19.0712C17.135199999999998,19.0712,18.1327,19.1425,18.1327,19.1425C18.1327,19.1425,18.1327,19.1425,18.1327,19.1425ZM5.867319999999999,19.1425C5.867319999999999,19.1425,6.86478,19.0712,6.86478,19.0712C6.86478,19.0712,5.867319999999999,19.1425,5.867319999999999,19.1425C5.867319999999999,19.1425,5.867319999999999,19.1425,5.867319999999999,19.1425ZM5.99746,6.92875C5.95811,6.37787,5.47963,5.96319,4.92875,6.00254C4.37787,6.04189,3.963193,6.52037,4.00254,7.07125C4.00254,7.07125,5.99746,6.92875,5.99746,6.92875C5.99746,6.92875,5.99746,6.92875,5.99746,6.92875ZM11,11C11,10.44772,10.55228,10,10,10C9.44772,10,9,10.44772,9,11C9,11,11,11,11,11C11,11,11,11,11,11ZM9,17C9,17.552300000000002,9.44772,18,10,18C10.55228,18,11,17.552300000000002,11,17C11,17,9,17,9,17C9,17,9,17,9,17ZM15,11C15,10.44772,14.5523,10,14,10C13.4477,10,13,10.44772,13,11C13,11,15,11,15,11C15,11,15,11,15,11ZM13,17C13,17.552300000000002,13.4477,18,14,18C14.5523,18,15,17.552300000000002,15,17C15,17,13,17,13,17C13,17,13,17,13,17ZM14,7C14,7.55228,14.4477,8,15,8C15.5523,8,16,7.55228,16,7C16,7,14,7,14,7C14,7,14,7,14,7ZM8,7C8,7.55228,8.44772,8,9,8C9.55228,8,10,7.55228,10,7C10,7,8,7,8,7C8,7,8,7,8,7ZM4,6C3.447715,6,3,6.44772,3,7C3,7.55228,3.447715,8,4,8C4,8,4,6,4,6C4,6,4,6,4,6ZM20,8C20.5523,8,21,7.55228,21,7C21,6.44772,20.5523,6,20,6C20,6,20,8,20,8C20,8,20,8,20,8ZM18.002499999999998,6.92875C18.002499999999998,6.92875,17.135199999999998,19.0712,17.135199999999998,19.0712C17.135199999999998,19.0712,19.1301,19.2137,19.1301,19.2137C19.1301,19.2137,19.9975,7.07125,19.9975,7.07125C19.9975,7.07125,18.002499999999998,6.92875,18.002499999999998,6.92875C18.002499999999998,6.92875,18.002499999999998,6.92875,18.002499999999998,6.92875ZM16.1378,20C16.1378,20,7.86224,20,7.86224,20C7.86224,20,7.86224,22,7.86224,22C7.86224,22,16.1378,22,16.1378,22C16.1378,22,16.1378,20,16.1378,20C16.1378,20,16.1378,20,16.1378,20ZM6.86478,19.0712C6.86478,19.0712,5.99746,6.92875,5.99746,6.92875C5.99746,6.92875,4.00254,7.07125,4.00254,7.07125C4.00254,7.07125,4.86986,19.2137,4.86986,19.2137C4.86986,19.2137,6.86478,19.0712,6.86478,19.0712C6.86478,19.0712,6.86478,19.0712,6.86478,19.0712ZM7.86224,20C7.3376,20,6.90216,19.5946,6.86478,19.0712C6.86478,19.0712,4.86986,19.2137,4.86986,19.2137C4.982,20.7837,6.288320000000001,22,7.86224,22C7.86224,22,7.86224,20,7.86224,20C7.86224,20,7.86224,20,7.86224,20ZM17.135199999999998,19.0712C17.0978,19.5946,16.662399999999998,20,16.1378,20C16.1378,20,16.1378,22,16.1378,22C17.7117,22,19.018,20.7837,19.1301,19.2137C19.1301,19.2137,17.135199999999998,19.0712,17.135199999999998,19.0712C17.135199999999998,19.0712,17.135199999999998,19.0712,17.135199999999998,19.0712ZM9,11C9,11,9,17,9,17C9,17,11,17,11,17C11,17,11,11,11,11C11,11,9,11,9,11C9,11,9,11,9,11ZM13,11C13,11,13,17,13,17C13,17,15,17,15,17C15,17,15,11,15,11C15,11,13,11,13,11C13,11,13,11,13,11ZM10,4C10,4,14,4,14,4C14,4,14,2,14,2C14,2,10,2,10,2C10,2,10,4,10,4C10,4,10,4,10,4ZM14,4C14,4,14,7,14,7C14,7,16,7,16,7C16,7,16,4,16,4C16,4,14,4,14,4C14,4,14,4,14,4ZM10,7C10,7,10,4,10,4C10,4,8,4,8,4C8,4,8,7,8,7C8,7,10,7,10,7C10,7,10,7,10,7ZM14,4C14,4,16,4,16,4C16,2.895431,15.1046,2,14,2C14,2,14,4,14,4C14,4,14,4,14,4ZM10,2C8.895430000000001,2,8,2.895431,8,4C8,4,10,4,10,4C10,4,10,2,10,2C10,2,10,2,10,2ZM4,8C4,8,20,8,20,8C20,8,20,6,20,6C20,6,4,6,4,6C4,6,4,8,4,8C4,8,4,8,4,8Z" fill="#111827" fill-opacity="1"/></g></g></svg>