<svg xmlns="http://www.w3.org/2000/svg" xmlns:xlink="http://www.w3.org/1999/xlink" fill="none" version="1.1" width="24" height="24" viewBox="0 0 24 24"><defs><clipPath id="master_svg0_0_160"><rect x="0" y="0" width="24" height="24" rx="0"/></clipPath></defs><g style="mix-blend-mode:passthrough" clip-path="url(#master_svg0_0_160)"><g style="mix-blend-mode:passthrough"><path d="M4.62897,16.9332C4.14817,17.204900000000002,3.97872,17.814999999999998,4.25048,18.2958C4.52224,18.7766,5.13231,18.9461,5.61311,18.6743C5.61311,18.6743,4.62897,16.9332,4.62897,16.9332C4.62897,16.9332,4.62897,16.9332,4.62897,16.9332ZM18.3869,18.6743C18.8677,18.9461,19.4778,18.7766,19.7495,18.2958C20.0213,17.814999999999998,19.8518,17.204900000000002,19.371,16.9332C19.371,16.9332,18.3869,18.6743,18.3869,18.6743C18.3869,18.6743,18.3869,18.6743,18.3869,18.6743ZM14,10C14,11.10457,13.1046,12,12,12C12,12,12,14,12,14C14.2091,14,16,12.2091,16,10C16,10,14,10,14,10C14,10,14,10,14,10ZM12,12C10.89543,12,10,11.10457,10,10C10,10,8,10,8,10C8,12.2091,9.79086,14,12,14C12,14,12,12,12,12C12,12,12,12,12,12ZM10,10C10,8.895430000000001,10.89543,8,12,8C12,8,12,6,12,6C9.79086,6,8,7.79086,8,10C8,10,10,10,10,10C10,10,10,10,10,10ZM12,8C13.1046,8,14,8.895430000000001,14,10C14,10,16,10,16,10C16,7.79086,14.2091,6,12,6C12,6,12,8,12,8C12,8,12,8,12,8ZM12,15C9.3229,15,6.80679,15.7022,4.62897,16.9332C4.62897,16.9332,5.61311,18.6743,5.61311,18.6743C7.49854,17.6086,9.67669,17,12,17C12,17,12,15,12,15C12,15,12,15,12,15ZM19.371,16.9332C17.193199999999997,15.7022,14.6771,15,12,15C12,15,12,17,12,17C14.3233,17,16.5015,17.6086,18.3869,18.6743C18.3869,18.6743,19.371,16.9332,19.371,16.9332C19.371,16.9332,19.371,16.9332,19.371,16.9332ZM20,12C20,16.418300000000002,16.418300000000002,20,12,20C12,20,12,22,12,22C17.5228,22,22,17.5228,22,12C22,12,20,12,20,12C20,12,20,12,20,12ZM12,20C7.58172,20,4,16.418300000000002,4,12C4,12,2,12,2,12C2,17.5228,6.47715,22,12,22C12,22,12,20,12,20C12,20,12,20,12,20ZM4,12C4,7.58172,7.58172,4,12,4C12,4,12,2,12,2C6.47715,2,2,6.47715,2,12C2,12,4,12,4,12C4,12,4,12,4,12ZM12,4C16.418300000000002,4,20,7.58172,20,12C20,12,22,12,22,12C22,6.47715,17.5228,2,12,2C12,2,12,4,12,4C12,4,12,4,12,4Z" fill="#111827" fill-opacity="1"/></g></g></svg>