<svg xmlns="http://www.w3.org/2000/svg" xmlns:xlink="http://www.w3.org/1999/xlink" fill="none" version="1.1" width="24" height="24" viewBox="0 0 24 24"><defs><clipPath id="master_svg0_0_198"><rect x="0" y="0" width="24" height="24" rx="0"/></clipPath></defs><g style="mix-blend-mode:passthrough" clip-path="url(#master_svg0_0_198)"><g style="mix-blend-mode:passthrough"><path d="M5.292892953674317,17.292900953674316C4.902370253674317,17.683400953674315,4.902370253674317,18.316600953674318,5.292892953674317,18.707100953674317C5.683417953674317,19.097600953674316,6.3165809536743165,19.097600953674316,6.7071109536743165,18.707100953674317C6.7071109536743165,18.707100953674317,5.292892953674317,17.292900953674316,5.292892953674317,17.292900953674316C5.292892953674317,17.292900953674316,5.292892953674317,17.292900953674316,5.292892953674317,17.292900953674316ZM18.707100953674317,6.7071109536743165C19.097600953674316,6.3165809536743165,19.097600953674316,5.683417953674317,18.707100953674317,5.292893953674317C18.316600953674318,4.902370253674317,17.683400953674315,4.902370253674317,17.292900953674316,5.292893953674317C17.292900953674316,5.292893953674317,18.707100953674317,6.7071109536743165,18.707100953674317,6.7071109536743165C18.707100953674317,6.7071109536743165,18.707100953674317,6.7071109536743165,18.707100953674317,6.7071109536743165ZM6.7071109536743165,5.292892953674317C6.3165809536743165,4.902370253674317,5.683417953674317,4.902370253674317,5.292892953674317,5.292892953674317C4.902370253674317,5.683416953674317,4.902370253674317,6.3165809536743165,5.292892953674317,6.7071109536743165C5.292892953674317,6.7071109536743165,6.7071109536743165,5.292892953674317,6.7071109536743165,5.292892953674317C6.7071109536743165,5.292892953674317,6.7071109536743165,5.292892953674317,6.7071109536743165,5.292892953674317ZM17.292900953674316,18.707100953674317C17.683400953674315,19.097600953674316,18.316600953674318,19.097600953674316,18.707100953674317,18.707100953674317C19.097600953674316,18.316600953674318,19.097600953674316,17.683400953674315,18.707100953674317,17.292900953674316C18.707100953674317,17.292900953674316,17.292900953674316,18.707100953674317,17.292900953674316,18.707100953674317C17.292900953674316,18.707100953674317,17.292900953674316,18.707100953674317,17.292900953674316,18.707100953674317ZM6.7071109536743165,18.707100953674317C6.7071109536743165,18.707100953674317,18.707100953674317,6.7071109536743165,18.707100953674317,6.7071109536743165C18.707100953674317,6.7071109536743165,17.292900953674316,5.292893953674317,17.292900953674316,5.292893953674317C17.292900953674316,5.292893953674317,5.292892953674317,17.292900953674316,5.292892953674317,17.292900953674316C5.292892953674317,17.292900953674316,6.7071109536743165,18.707100953674317,6.7071109536743165,18.707100953674317C6.7071109536743165,18.707100953674317,6.7071109536743165,18.707100953674317,6.7071109536743165,18.707100953674317ZM5.292892953674317,6.7071109536743165C5.292892953674317,6.7071109536743165,17.292900953674316,18.707100953674317,17.292900953674316,18.707100953674317C17.292900953674316,18.707100953674317,18.707100953674317,17.292900953674316,18.707100953674317,17.292900953674316C18.707100953674317,17.292900953674316,6.7071109536743165,5.292892953674317,6.7071109536743165,5.292892953674317C6.7071109536743165,5.292892953674317,5.292892953674317,6.7071109536743165,5.292892953674317,6.7071109536743165C5.292892953674317,6.7071109536743165,5.292892953674317,6.7071109536743165,5.292892953674317,6.7071109536743165Z" fill="#111827" fill-opacity="1"/></g></g></svg>